<?xml version="1.0" encoding="UTF-8"?>
<svg version="1.1" xmlns="http://www.w3.org/2000/svg" width="480" height="480">
<path d="M0 0 C3.59442224 0.00894061 7.18881213 0.0003705 10.78323424 -0.00586212 C17.8026153 -0.01529453 24.82189271 -0.00879984 31.841266 0.00340082 C40.03083997 0.01709938 48.22038995 0.01537614 56.40997247 0.01326749 C71.02885491 0.01008588 85.64768844 0.02169876 100.26655638 0.04133332 C114.42510017 0.06034438 128.58358668 0.06741708 142.74214232 0.06184113 C158.19564157 0.05577312 173.64911573 0.0559783 189.10261291 0.06732696 C190.75258557 0.06853414 192.40255823 0.06974013 194.05253088 0.07094491 C194.86415846 0.07154844 195.67578604 0.07215198 196.5120084 0.07277381 C202.20979284 0.07664018 207.90756788 0.07626436 213.605353 0.07435906 C220.55417137 0.07222942 227.50293981 0.07751939 234.45174416 0.09197261 C237.99162878 0.09917847 241.53144095 0.10332644 245.07133162 0.09872925 C248.91955091 0.09385344 252.76764036 0.10463743 256.61584532 0.11681855 C257.71878516 0.11303922 258.821725 0.1092599 259.95808727 0.10536605 C270.92971741 0.16647633 281.44040522 1.27768421 291.43379271 6.00251496 C292.19877074 6.35515412 292.96374876 6.70779328 293.75190794 7.07111847 C312.02497137 15.76457908 326.93196177 31.44291923 334.30879271 50.37751496 C338.12093336 62.83169811 339.46146705 75.07590736 339.44250548 88.06467927 C339.44477104 89.21334737 339.44703659 90.36201547 339.4493708 91.5454917 C339.45568131 95.37964651 339.45488333 99.2137657 339.45405638 103.04792511 C339.45650757 105.80320601 339.46042463 108.55848443 339.46423399 111.31376374 C339.47251987 118.013225 339.47528792 124.71267746 339.47584637 131.41214342 C339.47632259 136.8623163 339.47838261 142.31248628 339.481547 147.76265824 C339.49034858 163.23868444 339.49496725 178.71470372 339.49421652 194.19073243 C339.49415659 195.44068734 339.49415659 195.44068734 339.49409544 196.71589386 C339.49405456 197.55022306 339.49401368 198.38455226 339.49397156 199.24416415 C339.49356542 212.75497731 339.50312836 226.26576256 339.51723381 239.77656765 C339.53162621 253.67268948 339.5385024 267.56879773 339.53764004 281.4649272 C339.53730901 289.2570972 339.54001423 297.04923796 339.55081809 304.84140122 C339.55996093 311.47777851 339.56206752 318.1141133 339.55530866 324.7504942 C339.55206219 328.13060797 339.55302303 331.51057444 339.56066191 334.89069092 C339.62296334 364.38079969 337.15397095 389.57520641 315.48457396 411.43220246 C302.26655235 424.07267804 283.31601476 433.42838324 264.88740599 433.58283722 C264.14470143 433.59273116 263.40199687 433.60262509 262.6367861 433.61281884 C260.13425831 433.64468747 257.63171566 433.66945756 255.12910521 433.69392121 C253.3105396 433.71476214 251.49197683 433.73585204 249.67341673 433.75716889 C244.65487394 433.81401969 239.63628335 433.86328176 234.61763823 433.91014588 C231.42212919 433.94012438 228.22663685 433.97155545 225.03114378 434.00318635 C149.9418219 434.73463415 74.80056369 434.9706932 -0.28826082 434.08792603 C-2.34343949 434.06540149 -4.3986039 434.04778781 -6.45384157 434.03162873 C-10.09976209 433.99917076 -13.74484519 433.94786159 -17.39042604 433.88923371 C-18.38681596 433.88283371 -19.38320589 433.87643372 -20.40978944 433.86983979 C-38.09048767 433.49385832 -56.68201501 425.44190556 -69.69120729 413.37751496 C-69.69120729 412.71751496 -69.69120729 412.05751496 -69.69120729 411.37751496 C-70.56132448 411.02173371 -70.56132448 411.02173371 -71.44901979 410.65876496 C-81.60136705 404.85742366 -87.89917586 389.92525286 -91.69120729 379.37751496 C-92.24808229 377.86157746 -92.24808229 377.86157746 -92.81620729 376.31501496 C-95.24123519 368.17384986 -95.98088501 360.72595734 -95.9519037 352.22805512 C-95.95572925 351.02967882 -95.9595548 349.83130253 -95.96349627 348.5966118 C-95.97199404 345.29183499 -95.97160621 341.98728212 -95.96731567 338.68251204 C-95.96484002 335.10976019 -95.97387312 331.53703402 -95.98135316 327.96429169 C-95.99408006 320.97238557 -95.99589627 313.98051789 -95.9935529 306.98860214 C-95.99176692 301.30148011 -95.99352539 295.61436971 -95.99777734 289.92724907 C-95.99867013 288.71120706 -95.99867013 288.71120706 -95.99958095 287.47059854 C-96.00079276 285.82341459 -96.00200689 284.17623063 -96.00322332 282.52904668 C-96.01409164 267.09250307 -96.01194004 251.65598132 -96.00583848 236.21943649 C-96.00067297 222.11947824 -96.01191636 208.01958915 -96.0309367 193.91964457 C-96.05034365 179.42122641 -96.0585659 164.92284092 -96.05481344 150.42440969 C-96.05290534 142.29299988 -96.05535046 134.16164889 -96.06952798 126.03024971 C-96.08147942 119.10580089 -96.0828049 112.18144707 -96.07073782 105.25699685 C-96.06487469 101.72914896 -96.06367775 98.2014745 -96.07574022 94.67363846 C-96.13452343 73.20756419 -95.66396785 47.97188769 -79.67167604 31.26813996 C-78.69134401 30.33228058 -78.69134401 30.33228058 -77.69120729 29.37751496 C-76.80164428 28.30610758 -75.92460566 27.22404966 -75.06620729 26.12751496 C-74.28245729 25.22001496 -73.49870729 24.31251496 -72.69120729 23.37751496 C-72.03120729 23.37751496 -71.37120729 23.37751496 -70.69120729 23.37751496 C-70.45788698 22.79485871 -70.22456666 22.21220246 -69.98417604 21.61188996 C-66.11639375 14.92798824 -57.11332375 10.82585594 -50.50370729 7.06501496 C-49.3964026 6.42950715 -48.28909791 5.79399933 -47.14823854 5.13923371 C-32.53780559 -1.34262162 -15.58162622 -0.05319281 0 0 Z M-59.82011354 40.53376496 C-74.59680256 58.25256879 -75.15815219 78.90881774 -74.98417604 100.81892121 C-74.97856538 102.92454452 -74.97430225 105.03017181 -74.97131288 107.13580048 C-74.95997971 112.61838245 -74.93061483 118.10071753 -74.89720094 123.58320343 C-74.86624835 129.20145562 -74.85275427 134.81974856 -74.83769166 140.43806183 C-74.80573159 151.4179867 -74.75467869 162.39773012 -74.69120729 173.37751496 C-72.0044439 174.72089665 -69.92437094 174.51455535 -66.91470277 174.52900422 C-65.68493211 174.53734787 -64.45516145 174.54569153 -63.18812501 174.55428803 C-61.81797757 174.5585977 -60.44782985 174.56282148 -59.0776819 174.56696808 C-57.64060158 174.57490785 -56.20352367 174.5832956 -54.76644838 174.59209931 C-51.66820859 174.61017468 -48.56997418 174.62518357 -45.4717077 174.63787568 C-40.57751868 174.65806165 -35.68338968 174.68571771 -30.78924501 174.71455109 C-19.51789718 174.77980583 -8.24650489 174.83522045 3.02489531 174.89053833 C13.35569991 174.9413347 23.68648272 174.99417779 34.01723343 175.05506384 C38.88749177 175.08348122 43.75774282 175.10705228 48.62804294 175.12698853 C51.65126945 175.14033642 54.67446239 175.15775062 57.69766104 175.17629921 C59.10499663 175.18408198 60.51234291 175.19013978 61.91969359 175.19439232 C63.83290596 175.20040162 65.74609427 175.21301548 67.65927184 175.2260257 C68.73240661 175.23117943 69.80554139 175.23633317 70.9111954 175.24164307 C73.30879271 175.37751496 73.30879271 175.37751496 74.30879271 176.37751496 C74.16883919 182.60006366 73.27382822 188.48240844 71.30879271 194.37751496 C62.40692531 195.86115953 53.32323562 195.94825577 44.30879271 196.37751496 C44.30879271 227.39751496 44.30879271 258.41751496 44.30879271 290.37751496 C48.24543843 291.6897302 51.99201462 291.50840413 56.09468138 291.49104035 C56.99244795 291.49118638 57.89021452 291.4913324 58.81518614 291.49148285 C61.78573574 291.4907856 64.7562228 291.48300192 67.72676146 291.47517121 C69.78513615 291.47330636 71.84351129 291.47188277 73.90188658 291.47088349 C79.32210065 291.46706355 84.74228796 291.45723769 90.16249144 291.44617951 C95.69237464 291.43595417 101.22226216 291.43138346 106.75215209 291.42634308 C117.60437739 291.41561498 128.45658283 291.3985448 139.30879271 291.37751496 C140.47606729 289.04296579 140.39742421 287.75935147 140.33613646 285.16657746 C140.32389037 284.33384308 140.31164427 283.50110871 140.29902709 282.64313996 C140.26402514 280.89044999 140.22499837 279.13783554 140.18183959 277.38532746 C140.17088255 276.55001496 140.15992552 275.71470246 140.14863646 274.85407746 C140.12337889 273.71059845 140.12337889 273.71059845 140.09761107 272.54401886 C140.34965731 269.95828666 140.80588668 268.50665531 142.30879271 266.37751496 C147.30879271 264.37751496 147.30879271 264.37751496 160.30879271 264.37751496 C160.63879271 312.88751496 160.96879271 361.39751496 161.30879271 411.37751496 C166.64733403 413.2294252 166.64733403 413.2294252 171.8084265 413.61370575 C172.65468596 413.61526673 173.50094542 413.6168277 174.37284911 413.61843598 C175.28305815 413.60974991 176.1932672 413.60106385 177.13105834 413.59211457 C178.10431059 413.59068451 179.07756285 413.58925446 180.0803076 413.58778107 C183.29204198 413.57960972 186.50340576 413.5558122 189.71504271 413.52985871 C191.95979254 413.516366 194.20454355 413.50306844 196.44929564 413.48995697 C201.15678459 413.4594903 205.86411038 413.42013588 210.57148802 413.37580597 C216.57182891 413.32092049 222.57182555 413.29786635 228.57238066 413.28294766 C233.21230274 413.26610424 237.85185163 413.22700271 242.49157774 413.18196023 C244.70166106 413.16407244 246.91182423 413.15408571 249.12197936 413.15249169 C264.88071793 413.12922875 277.47474759 411.86126659 290.87129271 402.87751496 C291.43396849 402.51271027 291.99664427 402.14790558 292.57637084 401.77204621 C296.23961693 399.33558148 299.37522228 396.65524728 302.30879271 393.37751496 C302.30879271 392.71751496 302.30879271 392.05751496 302.30879271 391.37751496 C303.29879271 391.04751496 304.28879271 390.71751496 305.30879271 390.37751496 C309.57100776 385.33015503 311.8906188 379.98209779 314.29316771 373.85407746 C315.30879271 371.37751496 315.30879271 371.37751496 316.30879271 370.37751496 C317.45357333 362.7406822 317.45365444 355.00605091 317.44250548 347.30230439 C317.44477104 346.13614895 317.44703659 344.96999351 317.4493708 343.76850003 C317.45457041 340.56319958 317.45536185 337.3579348 317.45417643 334.15263152 C317.45397101 330.68361284 317.45950431 327.21460229 317.46423399 323.74558747 C317.47250933 316.96251922 317.47528737 310.17945967 317.47584637 303.39638679 C317.47632278 297.8813828 317.47838375 292.36638165 317.481547 286.85137856 C317.49034316 271.19582778 317.49496772 255.54028384 317.49421652 239.88473057 C317.49417657 239.0422835 317.49413661 238.19983643 317.49409544 237.33186066 C317.49405456 236.48837907 317.49401368 235.64489748 317.49397156 234.77585585 C317.49356484 221.09689576 317.50314367 207.41796317 317.51723381 193.73901104 C317.5316063 179.67447822 317.53850359 165.6099588 317.53764004 151.54541844 C317.53730849 143.65674568 317.54003745 135.76810179 317.55081809 127.87943566 C317.55993431 121.16610864 317.56208893 114.4528236 317.55530866 107.73949306 C317.55204982 104.31747309 317.55196383 100.8955336 317.56066191 97.47352135 C317.56838495 93.75752321 317.56373479 90.04173553 317.55603087 86.32574189 C317.56374621 84.71730909 317.56374621 84.71730909 317.57161742 83.0763827 C317.54208796 76.61740429 316.83223646 70.65678924 315.30879271 64.37751496 C305.8018052 68.86957913 297.96816764 78.61149957 290.55879271 85.94001496 C289.84304076 86.64271515 289.1272888 87.34541535 288.3898474 88.06940949 C287.7288806 88.72924836 287.0679138 89.38908722 286.38691771 90.06892121 C285.49601439 90.9536612 285.49601439 90.9536612 284.58711302 91.85627472 C283.09434829 93.30153928 283.09434829 93.30153928 283.30879271 95.37751496 C282.41842566 95.77990639 282.41842566 95.77990639 281.5100714 96.19042695 C279.29112581 97.38704222 277.85580498 98.58854966 276.08833373 100.37092316 C275.484131 100.97527695 274.87992827 101.57963074 274.25741637 102.20229828 C273.61565962 102.8543776 272.97390288 103.50645691 272.31269896 104.17829621 C271.64213973 104.85168534 270.97158049 105.52507447 270.28070128 106.21886933 C268.13948512 108.37126238 266.00531579 110.53049234 263.87129271 112.69001496 C262.43881254 114.13253172 261.00587474 115.57459418 259.57246459 117.01618683 C256.93167249 119.67328995 254.29356635 122.33299731 251.65864623 124.99592316 C248.88435225 127.79885163 246.1000751 130.59148867 243.30879271 133.37751496 C242.57209349 134.11421418 241.83539427 134.8509134 241.07637084 135.60993683 C228.77754271 147.90876496 228.77754271 147.90876496 226.40840209 150.27595246 C225.17785047 151.50764877 223.94912034 152.74117876 222.72480834 153.97907746 C220.50161841 156.225811 218.24077765 158.35850859 215.80879271 160.37751496 C211.4330975 164.09308374 207.54434298 168.08455656 203.80879271 172.44001496 C201.18591714 175.47165036 198.50283232 177.93995841 195.30879271 180.37751496 C191.01077788 184.44931848 187.16789263 188.89562082 183.30879271 193.37751496 C184.72527572 198.02129625 187.01968056 200.25684518 190.64473021 203.41657746 C191.73597223 204.38501616 192.825432 205.35546609 193.9132849 206.32771027 C194.4749536 206.8279068 195.0366223 207.32810334 195.61531126 207.84345734 C199.99858386 211.81408999 204.16906213 216.01327367 208.35810912 220.18659699 C209.96101704 221.77957056 211.57431188 223.36157013 213.18769896 224.94392121 C214.22090156 225.97061073 215.25347838 226.99793048 216.28535521 228.02595246 C217.20397337 228.93522492 218.12259154 229.84449738 219.06904662 230.78132355 C221.26106873 233.32219592 222.16688467 235.27352357 223.30879271 238.37751496 C222.61376647 238.50050461 221.91874022 238.62349427 221.20265257 238.75021088 C202.80315637 242.01040694 184.4261067 245.3778314 166.05879271 248.81501496 C163.4617249 249.30006016 160.86463813 249.78500387 158.26753294 250.26984894 C147.44281855 252.29139549 136.61886958 254.3169607 125.79707396 256.35407746 C125.04676909 256.4952147 124.29646422 256.63635193 123.52342284 256.78176606 C120.26305904 257.39514764 117.00295431 258.00979104 113.74336302 258.62727082 C108.47502973 259.62057598 103.20610465 260.56821869 97.91426146 261.42829621 C93.73940468 262.11317733 89.65934006 262.95082017 85.55879271 264.00251496 C80.62860696 265.17580436 76.36168175 265.76619873 71.30879271 265.37751496 C70.97879271 265.04751496 70.64879271 264.71751496 70.30879271 264.37751496 C70.95236188 258.25107081 72.27876632 252.22359785 73.49629271 246.19001496 C73.7147888 245.10285187 73.9332849 244.01568879 74.15840209 242.89558136 C77.18530229 227.9294783 80.39944263 213.00134865 83.69551146 198.09235871 C84.12951117 196.1250003 84.56311684 194.15755492 84.99629271 192.19001496 C85.20310668 191.25077179 85.40992064 190.31152863 85.62300169 189.34382355 C86.99640515 183.02627944 88.15836989 176.69548327 89.2113806 170.31770051 C90.01376962 165.6214151 91.13604283 161.08475814 92.43379271 156.50251496 C93.86176516 151.37797986 94.69698762 146.63566345 95.03926146 141.34235871 C95.38672873 137.52021872 96.00609324 133.77839131 96.68379271 130.00251496 C96.79795531 129.32390412 96.91211791 128.64529328 97.02973998 127.94611847 C97.78764307 123.8615531 98.94680631 120.79513774 101.30879271 117.37751496 C106.98406432 117.5720957 109.82143301 121.40485622 113.49629271 125.25251496 C114.12471068 125.8906009 114.75312865 126.52868683 115.40058959 127.18610871 C117.98908551 129.83827887 120.24490498 132.28168336 122.30879271 135.37751496 C122.96879271 135.37751496 123.62879271 135.37751496 124.30879271 135.37751496 C124.63879271 136.36751496 124.96879271 137.35751496 125.30879271 138.37751496 C126.90793253 139.96449127 126.90793253 139.96449127 128.80879271 141.44001496 C132.20930729 144.17854412 132.20930729 144.17854412 133.30879271 146.37751496 C133.96879271 146.37751496 134.62879271 146.37751496 135.30879271 146.37751496 C135.55629271 146.97563996 135.80379271 147.57376496 136.05879271 148.19001496 C137.53297525 150.7698344 138.69592554 151.95910135 141.30879271 153.37751496 C145.71590634 153.26451204 148.17686145 151.34883436 151.30879271 148.37751496 C151.90691771 147.45454621 152.50504271 146.53157746 153.12129271 145.58063996 C155.39773387 142.24727969 157.85949897 139.62973895 160.74629271 136.81501496 C161.67312865 135.9062259 162.59996459 134.99743683 163.55488646 134.06110871 C164.91807005 132.7327298 164.91807005 132.7327298 166.30879271 131.37751496 C167.19695677 130.48032746 168.08512084 129.58313996 169.00019896 128.65876496 C171.30879271 126.37751496 171.30879271 126.37751496 173.80879271 124.44001496 C176.73199896 122.0283698 178.91474307 119.31022576 181.30879271 116.37751496 C183.86491907 113.6903052 186.42877381 111.28003032 189.30879271 108.94001496 C192.38114113 106.31571735 194.73392143 103.48056497 197.30879271 100.37751496 C198.95519236 99.01923525 200.62175078 97.68497245 202.30879271 96.37751496 C205.06433098 93.7597536 207.59698036 91.06860751 209.99629271 88.12751496 C212.30879271 85.37751496 212.30879271 85.37751496 214.30879271 84.37751496 C214.30879271 83.71751496 214.30879271 83.05751496 214.30879271 82.37751496 C215.79379271 81.88251496 215.79379271 81.88251496 217.30879271 81.37751496 C218.5544143 79.93521627 219.79538219 78.48777679 220.98457396 76.99860871 C223.55269995 73.85473765 226.34381243 71.08168976 229.62129271 68.69001496 C230.45660521 68.04032746 230.45660521 68.04032746 231.30879271 67.37751496 C231.30879271 66.71751496 231.30879271 66.05751496 231.30879271 65.37751496 C232.79379271 64.88251496 232.79379271 64.88251496 234.30879271 64.37751496 C235.67518613 62.73784286 237.00373461 61.06641368 238.30879271 59.37751496 C241.16498036 56.36265021 244.1762262 53.59790167 247.30879271 50.87751496 C251.03702636 47.63708758 254.64154674 44.37302697 257.81660521 40.57282746 C262.43101676 35.05699598 267.5802191 30.71140565 273.30879271 26.37751496 C272.97879271 25.05751496 272.64879271 23.73751496 272.30879271 22.37751496 C269.23036473 21.47914538 266.48350355 21.25144185 263.28146899 21.24888051 C262.26190358 21.24565606 261.24233816 21.24243161 260.19187683 21.23910946 C258.51432714 21.24143236 258.51432714 21.24143236 256.80288756 21.24380219 C255.61342266 21.24153663 254.42395777 21.23927108 253.19844848 21.23693687 C249.89558385 21.23169556 246.59277359 21.23095303 243.28990865 21.23213124 C239.72807903 21.23233513 236.16625757 21.22681752 232.60443175 21.22207367 C225.62488973 21.21376335 218.64535616 21.21101864 211.66580961 21.2104613 C205.9914 21.20998621 200.31699317 21.20793183 194.64258444 21.20476067 C178.55324829 21.19595219 162.46391882 21.19134147 146.37458024 21.19209114 C145.07321536 21.19215108 145.07321536 21.19215108 143.74556029 21.19221222 C142.87692358 21.1922531 142.00828686 21.19229399 141.11332782 21.1923361 C127.04202261 21.19274238 112.97074417 21.18317797 98.8994467 21.16907386 C84.44980614 21.15470491 70.00017862 21.147804 55.55053073 21.14866763 C47.43877954 21.14899948 39.3270564 21.14625804 31.21531165 21.13548958 C24.3070864 21.12637764 17.39890194 21.12421494 10.49067328 21.13099901 C6.96756339 21.13426103 3.4445317 21.13433248 -0.07857072 21.12564576 C-3.90254453 21.11631444 -7.72640454 21.12256533 -11.55038393 21.1302768 C-12.65759678 21.12513324 -13.76480963 21.11998967 -14.90557438 21.11469024 C-32.65473442 21.19373773 -47.39525413 27.9493202 -59.82011354 40.53376496 Z M-73.69120729 196.37751496 C-75.3389463 199.67299299 -74.82016454 203.33658659 -74.80473268 206.95808136 C-74.80487871 207.84594834 -74.80502473 208.73381531 -74.80517519 209.64858735 C-74.80447684 212.59210865 -74.7966881 215.53556717 -74.78886354 218.47907746 C-74.78699908 220.51646114 -74.78557531 222.55384527 -74.78457582 224.59122956 C-74.78075284 229.96049461 -74.7709244 235.32973273 -74.75987184 240.69898713 C-74.74965302 246.17515936 -74.74507719 251.65133594 -74.74003541 257.12751496 C-74.72930196 267.87752681 -74.71222814 278.62751865 -74.69120729 289.37751496 C-70.75216676 292.05007151 -66.48159983 291.65122487 -61.91532838 291.62043488 C-60.58790872 291.6232824 -60.58790872 291.6232824 -59.2336725 291.62618744 C-56.31057296 291.62989019 -53.38772222 291.61919936 -50.46464479 291.60798371 C-48.43491079 291.60679167 -46.40517624 291.6063388 -44.37544191 291.60659516 C-40.12356551 291.60503124 -35.87177342 291.5967474 -31.61991823 291.58332551 C-26.16092291 291.56631421 -20.70202006 291.56251184 -15.24300134 291.56327069 C-11.05324863 291.56299924 -6.86351627 291.55752249 -2.67377031 291.55026925 C-0.66026022 291.54708032 1.35325218 291.54511465 3.36676466 291.54437554 C6.17511768 291.54221557 8.98337113 291.53347939 11.79170287 291.52277863 C13.04786658 291.52345841 13.04786658 291.52345841 14.32940733 291.52415192 C18.45150992 291.60585061 18.45150992 291.60585061 22.30879271 290.37751496 C22.30879271 259.35751496 22.30879271 228.33751496 22.30879271 196.37751496 C-9.37120729 196.37751496 -41.05120729 196.37751496 -73.69120729 196.37751496 Z M-74.69120729 314.37751496 C-74.81764363 316.96716118 -74.8794245 319.52860876 -74.89433229 322.11970246 C-74.90143724 322.91087464 -74.90854219 323.70204682 -74.91586244 324.51719391 C-75.62611252 361.21223449 -75.62611252 361.21223449 -58.97636354 393.06501496 C-51.3790453 400.75324128 -42.90061438 405.94093321 -32.69120729 409.37751496 C-32.07124879 409.6321048 -31.4512903 409.88669465 -30.81254518 410.14899933 C-22.51158158 413.19576076 -13.85241475 412.95573593 -5.12162721 413.08601105 C-2.36760776 413.12768291 0.38533836 413.19036579 3.13887084 413.25642121 C4.89991381 413.29279552 6.66098155 413.32799355 8.42207396 413.36188996 C9.23984816 413.37951386 10.05762236 413.39713776 10.9001776 413.41529572 C12.05244086 413.43091553 12.05244086 413.43091553 13.22798216 413.4468509 C13.89731276 413.45778779 14.56664336 413.46872468 15.2562567 413.47999299 C17.676648 413.35914886 19.94538653 412.89933577 22.30879271 412.37751496 C22.46242863 399.76489267 22.61061045 387.15221938 22.75175631 374.53945076 C22.81746318 368.68335305 22.88507551 362.82729004 22.95698607 356.97126496 C23.02626563 351.32386232 23.09061373 345.67642338 23.15148795 340.02892411 C23.17563352 337.87025504 23.20158057 335.71160538 23.22932684 333.55297959 C23.26777401 330.53830482 23.29991596 327.52362573 23.33052123 324.50886261 C23.34346724 323.60903153 23.35641325 322.70920044 23.36975157 321.78210175 C23.54632143 317.44449834 23.54632143 317.44449834 22.30879271 313.37751496 C9.80922171 313.35439353 -2.69034424 313.3366009 -15.18993223 313.32570279 C-20.99334342 313.32047352 -26.79674004 313.31337508 -32.60014284 313.30207551 C-38.19571582 313.29124817 -43.79127474 313.28523845 -49.38685739 313.28263772 C-51.52679673 313.28078319 -53.66673525 313.27716205 -55.80666864 313.2717849 C-58.79285695 313.26457652 -61.77898636 313.26352393 -64.7651819 313.26398957 C-65.65925752 313.26039429 -66.55333314 313.25679902 -67.47450197 313.25309479 C-71.39662652 312.8675663 -71.39662652 312.8675663 -74.69120729 314.37751496 Z M44.30879271 313.37751496 C44.30879271 345.71751496 44.30879271 378.05751496 44.30879271 411.37751496 C48.88122628 413.28695218 48.88122628 413.28695218 53.32681334 413.58006012 C54.47303412 413.57156289 54.47303412 413.57156289 55.64241087 413.56289399 C56.46600096 413.5463527 57.28959105 413.52981141 58.13813841 413.51276886 C59.0166899 413.50330735 59.89524138 413.49384583 60.80041564 413.4840976 C63.69535061 413.45050315 66.58984991 413.40236502 69.48457396 413.35407746 C71.49523855 413.32790176 73.50591517 413.30263543 75.51660216 413.27824128 C80.80212208 413.21167448 86.08738828 413.13276326 91.37269652 413.05128205 C96.76861409 412.97027992 102.16468024 412.90095087 107.56074584 412.83063996 C118.14360622 412.69102392 128.72623528 412.53836659 139.30879271 412.37751496 C139.33191392 399.61717626 139.34970666 386.85684251 139.36060488 374.09648716 C139.3658342 368.17200781 139.37293272 362.24754273 139.38423216 356.3230716 C139.39505932 350.61078925 139.40106918 344.89852068 139.40366995 339.18622887 C139.40552451 337.00163219 139.40914571 334.8170363 139.41452277 332.63244545 C139.42173092 329.58399147 139.42278375 326.53559517 139.4223181 323.4871341 C139.42771101 322.11796845 139.42771101 322.11796845 139.43321288 320.72114289 C139.82960929 316.7318404 139.82960929 316.7318404 138.30879271 313.37751496 C135.38681168 313.28226016 132.48862164 313.25200066 129.56636107 313.26398957 C128.16856209 313.26380877 128.16856209 313.26380877 126.74252474 313.26362431 C123.71120478 313.26437366 120.67994549 313.27200287 117.64863646 313.27985871 C115.78311756 313.28132806 113.91759824 313.28234881 112.05207884 313.28291047 C105.11681053 313.28816413 98.18155103 313.3021252 91.24629271 313.31501496 C68.01223021 313.34595246 68.01223021 313.34595246 44.30879271 313.37751496 Z " fill="#39410F" transform="translate(118.69120728969574,22.622485041618347)"/>
<path d="M0 0 C10.7900704 2.91623524 19.1999701 9.22748344 27 17 C27.57621094 17.55300781 28.15242187 18.10601562 28.74609375 18.67578125 C33.98339175 24.15793994 38.87828969 32.33240954 39.078125 39.99609375 C37.52102663 44.33453089 34.74864024 46.53551182 31.3125 49.5 C29.94450617 50.72551511 28.57867574 51.95344875 27.21484375 53.18359375 C26.51601074 53.80991699 25.81717773 54.43624023 25.09716797 55.08154297 C21.75383929 58.13996867 18.56187278 61.34251574 15.375 64.5625 C14.80821533 65.13355469 14.24143066 65.70460938 13.6574707 66.29296875 C12.6420837 67.31730657 11.62766059 68.34260195 10.61474609 69.36938477 C9.33418666 70.66252907 8.04848517 71.95058106 6.76098633 73.23681641 C4.08549859 75.91443337 1.42088284 78.60241589 -1.24162292 81.29292297 C-3.99478446 84.07282361 -6.7532405 86.84744523 -9.51196289 89.62182617 C-10.96946476 91.08946889 -12.42517872 92.55888919 -13.87915039 94.0300293 C-15.98119493 96.15619992 -18.08951616 98.27596271 -20.19921875 100.39453125 C-20.85129807 101.05693314 -21.50337738 101.71933502 -22.17521667 102.40180969 C-22.77957047 103.00631454 -23.38392426 103.6108194 -24.0065918 104.23364258 C-24.53778122 104.76927322 -25.06897064 105.30490387 -25.61625671 105.85676575 C-27 107 -27 107 -29 107 C-29.23936279 107.56533447 -29.47872559 108.13066895 -29.7253418 108.71313477 C-31.27062425 111.48552717 -33.13513137 113.36018787 -35.39453125 115.58984375 C-36.26787109 116.45673828 -37.14121094 117.32363281 -38.04101562 118.21679688 C-38.95560547 119.11462891 -39.87019531 120.01246094 -40.8125 120.9375 C-42.16698242 122.27844727 -42.16698242 122.27844727 -43.54882812 123.64648438 C-45.23966688 125.31993023 -46.93255578 126.99130905 -48.62817383 128.65991211 C-50.29914687 130.30852524 -51.95808292 131.96938297 -53.6081543 133.63891602 C-56 136 -56 136 -59.0625 138.5 C-61.81245111 140.84038392 -63.7982897 143.15908348 -66 146 C-68.85618765 149.01486474 -71.86743349 151.77961329 -75 154.5 C-80.84672543 159.58173332 -85.95241829 165.13782297 -91 171 C-89.65503828 175.1321383 -88.03135041 177.20334142 -84.72265625 179.984375 C-78.64376547 185.26390094 -72.90410209 190.84010258 -67.19213867 196.51269531 C-66.01065404 197.68250812 -64.82467909 198.8478012 -63.63452148 200.00878906 C-61.89105503 201.70975511 -60.16106979 203.42343972 -58.43359375 205.140625 C-57.90140732 205.65530334 -57.36922089 206.16998169 -56.82090759 206.70025635 C-53.87299921 209.66583071 -52.31750397 211.77627904 -52 216 C-59.63030796 218.27094822 -67.25259274 219.85401877 -75.10122681 221.16165161 C-92.06176348 223.99723135 -108.9350257 227.27424348 -125.8125 230.5625 C-158.64843015 236.95736113 -158.64843015 236.95736113 -174.44458008 239.51782227 C-180.7412124 240.548389 -186.91399822 241.86243068 -193.11157227 243.38354492 C-196.91986622 244.19632002 -200.12540275 244.36552804 -204 244 C-204.66 243.34 -205.32 242.68 -206 242 C-205.80329304 239.58469654 -205.46509588 237.37012861 -205 235 C-204.84740723 234.18740723 -204.69481445 233.37481445 -204.53759766 232.53759766 C-203.979991 229.625535 -203.39898367 226.71888288 -202.8125 223.8125 C-202.59400391 222.72533691 -202.37550781 221.63817383 -202.15039062 220.51806641 C-199.12349042 205.55196334 -195.90935008 190.62383369 -192.61328125 175.71484375 C-192.17928154 173.74748535 -191.74567587 171.78003996 -191.3125 169.8125 C-191.10568604 168.87325684 -190.89887207 167.93401367 -190.68579102 166.96630859 C-189.31238756 160.64876448 -188.15042282 154.31796831 -187.09741211 147.94018555 C-186.29502309 143.24390014 -185.17274988 138.70724318 -183.875 134.125 C-182.44667976 128.99921681 -181.61535397 124.25456231 -181.265625 118.9609375 C-180.92503809 115.16439519 -180.34157915 111.44128977 -179.6875 107.6875 C-179.58171631 107.01726807 -179.47593262 106.34703613 -179.36694336 105.65649414 C-178.49063697 100.82807603 -176.88864694 97.84160264 -174 94 C-170.07199675 94.51805263 -168.13130425 95.37312848 -165.37109375 98.203125 C-164.72849609 98.85410156 -164.08589844 99.50507813 -163.42382812 100.17578125 C-162.76833984 100.86027344 -162.11285156 101.54476562 -161.4375 102.25 C-160.4484668 103.25353516 -160.4484668 103.25353516 -159.43945312 104.27734375 C-156.72521519 107.05432286 -154.14357643 109.81972907 -151.72265625 112.859375 C-150.00428872 115.21413393 -150.00428872 115.21413393 -147 117 C-147 117.66 -147 118.32 -147 119 C-146.360625 119.268125 -145.72125 119.53625 -145.0625 119.8125 C-143 121 -143 121 -142 124 C-141.34 124 -140.68 124 -140 124 C-139.1028125 125.2065625 -139.1028125 125.2065625 -138.1875 126.4375 C-136.23103379 129.10049851 -136.23103379 129.10049851 -133.625 130.0625 C-129.7318136 129.96980509 -127.9650075 128.46032537 -125 126 C-124.10861328 124.63681641 -124.10861328 124.63681641 -123.19921875 123.24609375 C-120.73799005 119.61326773 -117.98831807 116.69286817 -114.875 113.625 C-114.06869141 112.80708984 -114.06869141 112.80708984 -113.24609375 111.97265625 C-109.25352444 108 -109.25352444 108 -107 108 C-106.62875 107.13375 -106.62875 107.13375 -106.25 106.25 C-104.81700012 103.67060021 -103.21575324 101.93878408 -101 100 C-100.34 100 -99.68 100 -99 100 C-98.5978125 99.1028125 -98.5978125 99.1028125 -98.1875 98.1875 C-97.00082594 96.00152146 -95.90400887 94.58667406 -94 93 C-93.34 93 -92.68 93 -92 93 C-91.773125 92.443125 -91.54625 91.88625 -91.3125 91.3125 C-89.62449964 88.33840412 -87.53323483 86.27991135 -85 84 C-84.34 84 -83.68 84 -83 84 C-82.73960937 83.40058594 -82.47921875 82.80117187 -82.2109375 82.18359375 C-80.91715749 79.85061626 -79.70531236 78.70222219 -77.625 77.0625 C-74.64661165 74.61332942 -72.35787143 72.06523286 -70 69 C-67.19563993 65.98531292 -64.84242345 63.56543178 -61 62 C-61 61.34 -61 60.68 -61 60 C-58.646679 57.44496577 -56.24619234 55.19079907 -53.5 53.0625 C-51.42100476 51.34732893 -49.97235432 49.82846861 -48.3125 47.75 C-47.1678125 46.38875 -47.1678125 46.38875 -46 45 C-45.34 45 -44.68 45 -44 45 C-44 44.34 -44 43.68 -44 43 C-41.646679 40.44496577 -39.24619234 38.19079907 -36.5 36.0625 C-33.57679375 33.65085484 -31.39404964 30.9327108 -29 28 C-26.30194081 25.15993769 -23.50490618 22.56658849 -20.5 20.0625 C-17.78822681 17.78135173 -15.65040522 15.36476463 -13.453125 12.57421875 C-10.98202745 9.8971964 -8.0243751 7.84707132 -5.0859375 5.7109375 C-2.9804271 3.98394582 -1.53440488 2.238081 0 0 Z " fill="#718220" transform="translate(394,45)"/>
<path d="M0 0 C-10.57384151 4.10063463 -20.00014869 4.58917159 -31.19140625 4.57421875 C-32.91203718 4.586693 -34.63265547 4.60103516 -36.35325623 4.61714172 C-40.84130551 4.65485267 -45.32913503 4.67030271 -49.81732178 4.67993164 C-57.03049309 4.6998181 -64.24350001 4.75657886 -71.45649529 4.80869484 C-73.96698866 4.82399377 -76.47739863 4.83121926 -78.9879303 4.83683777 C-80.52263429 4.84385248 -82.05733789 4.85095328 -83.59204102 4.8581543 C-84.63387039 4.85736122 -84.63387039 4.85736122 -85.69674683 4.85655212 C-89.3180002 4.86582717 -89.3180002 4.86582717 -92.86640453 5.50069046 C-95.46225559 6.10817825 -97.82542983 6.12278952 -100.49224854 6.12025452 C-101.60841553 6.12162918 -102.72458252 6.12300385 -103.87457275 6.12442017 C-105.09448914 6.12082489 -106.31440552 6.11722961 -107.57128906 6.11352539 C-109.50337219 6.11374443 -109.50337219 6.11374443 -111.4744873 6.1139679 C-115.00307749 6.11425477 -118.53163367 6.10837583 -122.06021595 6.10139394 C-125.74910624 6.09514207 -129.43799732 6.09455515 -133.12689209 6.09336853 C-140.11079515 6.09026063 -147.09468255 6.08205451 -154.07857871 6.07201904 C-162.03015042 6.06084113 -169.98172288 6.05534322 -177.9333005 6.05032361 C-194.28887616 6.03987146 -210.64443608 6.02228247 -227 6 C-227 5.34 -227 4.68 -227 4 C-252.41 4 -277.82 4 -304 4 C-304 3.67 -304 3.34 -304 3 C-303.09647961 2.99853479 -303.09647961 2.99853479 -302.17470628 2.99703997 C-266.44227013 2.93871613 -230.7098986 2.86488023 -194.97753771 2.77101372 C-190.68318624 2.75974611 -186.38883444 2.74860757 -182.09448242 2.73754883 C-180.81213782 2.7342433 -180.81213782 2.7342433 -179.50388726 2.730871 C-165.67754569 2.69553807 -151.85120417 2.67065135 -138.02483425 2.64965298 C-123.82838967 2.62785899 -109.63200346 2.5947745 -95.43560857 2.55129844 C-86.68190165 2.52484362 -77.92826743 2.50710286 -69.17452254 2.50065396 C-63.1645642 2.49538114 -57.15469717 2.47910095 -51.14478783 2.45433434 C-47.68195223 2.4403839 -44.21927984 2.43112416 -40.75641441 2.43499184 C-36.99039996 2.43665149 -33.2248844 2.41988528 -29.4589386 2.39872742 C-27.84068577 2.40599878 -27.84068577 2.40599878 -26.18974096 2.41341704 C-19.39923925 2.35080635 -13.35076535 1.33649106 -6.79636544 -0.45542401 C-4.047645 -0.99072141 -2.59714983 -0.93919 0 0 Z " fill="#28280C" transform="translate(402,451)"/>
<path d="M0 0 C5.71389274 5.71389274 5.04139952 13.85626161 5.11352539 21.43774414 C5.11336869 23.88688722 5.10781669 26.33603424 5.09765625 28.78515625 C5.0962413 30.08198837 5.09482635 31.3788205 5.09336853 32.71495056 C5.08958317 36.13270051 5.07978777 39.55040675 5.06866455 42.96813965 C5.05836397 46.46768605 5.05385254 49.96723963 5.04882812 53.46679688 C5.03816119 60.31121567 5.0211337 67.15560573 5 74 C4.67 74 4.34 74 4 74 C3.67 145.28 3.34 216.56 3 290 C2.67 290 2.34 290 2 290 C1.99826375 289.43877829 1.9965275 288.87755658 1.99473864 288.29932815 C1.89146164 254.9546471 1.7832974 221.60998584 1.66888306 188.26534121 C1.65511531 184.25168267 1.64138794 180.238024 1.62768555 176.22436523 C1.62495724 175.42539838 1.62222894 174.62643153 1.61941796 173.80325355 C1.57547609 160.90702794 1.53479701 148.01079402 1.49534739 135.11455397 C1.45472286 121.8582645 1.41053712 108.60199026 1.36312145 95.34572333 C1.33402985 87.18167935 1.30763727 79.01763618 1.28482103 70.85357221 C1.26885675 65.23698677 1.24939897 59.62041983 1.22733159 54.00385509 C1.21474438 50.77500401 1.20408729 47.5461682 1.19658089 44.3173008 C1.16114128 29.5156428 0.85837293 14.7780799 0 0 Z " fill="#323513" transform="translate(453,84)"/>
<path d="M0 0 C18.68625 -0.0309375 18.68625 -0.0309375 37.75 -0.0625 C41.66069336 -0.071604 45.57138672 -0.08070801 49.60058594 -0.09008789 C54.43408203 -0.09460449 54.43408203 -0.09460449 56.70806885 -0.09544373 C58.27171108 -0.09696355 59.83535226 -0.10044724 61.39898682 -0.10557556 C70.65486652 -0.13437343 79.78356671 0.00360784 89 1 C89 1.33 89 1.66 89 2 C60.29 2 31.58 2 2 2 C2.33 34.34 2.66 66.68 3 100 C11.26132211 100.84839338 11.26132211 100.84839338 19.4453125 101.09765625 C20.54101562 101.09443359 21.63671875 101.09121094 22.765625 101.08789062 C23.87421875 101.07951172 24.9828125 101.07113281 26.125 101.0625 C27.27226562 101.05798828 28.41953125 101.05347656 29.6015625 101.04882812 C32.40109813 101.03716339 35.20051986 101.02079614 38 101 C38 101.33 38 101.66 38 102 C5.53686036 103.84562012 5.53686036 103.84562012 0 102 C0 68.34 0 34.68 0 0 Z " fill="#484A28" transform="translate(161,334)"/>
<path d="M0 0 C7.27272727 -0.36363636 7.27272727 -0.36363636 10.5 1.25 C12 3 12 3 12 7 C11.34 7 10.68 7 10 7 C10 38.02 10 69.04 10 101 C-10.46 101 -30.92 101 -52 101 C-52 100.67 -52 100.34 -52 100 C-32.53 100 -13.06 100 7 100 C6.505 51.49 6.505 51.49 6 2 C4.02 1.67 2.04 1.34 0 1 C0 0.67 0 0.34 0 0 Z " fill="#35371C" transform="translate(251,335)"/>
<path d="M0 0 C1.5 1.3125 1.5 1.3125 3 3 C3 3.99 3 4.98 3 6 C3.99 6 4.98 6 6 6 C6 12.93 6 19.86 6 27 C5.34 27 4.68 27 4 27 C3.67 115.44 3.34 203.88 3 295 C2.67 295 2.34 295 2 295 C1.99826375 294.40074585 1.9965275 293.8014917 1.99473864 293.18407834 C1.89166751 257.65226954 1.7835459 222.12047959 1.66888306 186.58870626 C1.6551138 182.32053086 1.64138666 178.05235531 1.62768555 173.78417969 C1.62495724 172.93447758 1.62222894 172.08477548 1.61941796 171.20932482 C1.57536606 157.45855283 1.53472444 143.70777277 1.49534739 129.95698668 C1.4548544 115.84307118 1.41068669 101.72917062 1.36312145 87.61527717 C1.33389643 78.90917895 1.3075235 70.20308174 1.28482103 61.49696402 C1.26896954 55.52350427 1.24954245 49.55006274 1.22733159 43.57662328 C1.21462987 40.13243228 1.20347787 36.68825509 1.19658089 33.24404716 C1.18826548 29.50341625 1.17397385 25.76285324 1.15821838 22.02224731 C1.15724028 20.94245546 1.15626217 19.86266361 1.15525442 18.7501508 C1.12115844 12.44297912 0.75648907 6.26248484 0 0 Z " fill="#545537" transform="translate(434,87)"/>
<path d="M0 0 C0.66 0 1.32 0 2 0 C2.05386629 2.12472576 2.09273071 4.24983652 2.125 6.375 C2.14820313 7.55835937 2.17140625 8.74171875 2.1953125 9.9609375 C2 13 2 13 0 15 C-0.30716818 17.17466376 -0.30716818 17.17466376 -0.26171303 19.72828102 C-0.26917852 20.73199765 -0.27664401 21.73571428 -0.28433573 22.76984656 C-0.282401 23.88072304 -0.28046626 24.99159951 -0.2784729 26.13613892 C-0.2842653 27.30982729 -0.2900577 28.48351567 -0.29602563 29.69277036 C-0.31013538 32.96053631 -0.31525949 36.22817758 -0.31667423 39.4959693 C-0.32035817 43.01610119 -0.33550853 46.53618544 -0.34928894 50.05628967 C-0.37159738 56.15841807 -0.38658906 62.26052958 -0.39665604 68.36268997 C-0.41122182 77.18545782 -0.43675265 86.00816691 -0.46498732 94.83090036 C-0.51049361 109.14408731 -0.54709252 123.4572827 -0.578125 137.77050781 C-0.60829486 151.67709842 -0.6426379 165.58366836 -0.68261719 179.49023438 C-0.68630951 180.7753478 -0.68630951 180.7753478 -0.69007643 182.08642311 C-0.70245072 186.3843105 -0.71490731 190.68219763 -0.72740483 194.98008466 C-0.83103006 230.65336142 -0.92021432 266.32666226 -1 302 C0.32 302.33 1.64 302.66 3 303 C2.67 307.29 2.34 311.58 2 316 C-2.77413542 308.83879686 -2.28739271 300.14657519 -2.25396729 291.82362366 C-2.25708727 290.6224251 -2.26020725 289.42122654 -2.26342177 288.18362802 C-2.26999125 284.87112469 -2.26766424 281.55885005 -2.26144934 278.2463609 C-2.25690811 274.66550948 -2.2639169 271.08467747 -2.26940918 267.50382996 C-2.2782873 260.49721966 -2.27638815 253.49065229 -2.2705839 246.48404033 C-2.26606083 240.78734999 -2.2654573 235.09067165 -2.26763153 229.39398003 C-2.267938 228.58213046 -2.26824446 227.77028089 -2.26856022 226.93382983 C-2.26919969 225.28438294 -2.26984812 223.63493606 -2.2705054 221.98548918 C-2.27620416 206.52998872 -2.26965812 191.07451201 -2.25890467 175.61901545 C-2.24997126 162.36945218 -2.25152035 149.11992396 -2.26074219 135.87036133 C-2.27145576 120.47041527 -2.2756531 105.07049002 -2.26951766 89.67054075 C-2.26888059 88.02697242 -2.26825185 86.38340408 -2.26763153 84.73983574 C-2.26732298 83.93124933 -2.26701443 83.12266292 -2.26669653 82.2895739 C-2.26497272 76.60298234 -2.26787794 70.91640403 -2.27259064 65.22981453 C-2.27821163 58.29501834 -2.27665753 51.36026741 -2.26602915 44.42547638 C-2.26078854 40.89005947 -2.25868806 37.35471789 -2.26532745 33.81930161 C-2.2724271 29.9806122 -2.26392492 26.14204499 -2.25396729 22.30335999 C-2.25842873 21.19468868 -2.26289017 20.08601737 -2.26748681 18.94374996 C-2.2346236 12.40022052 -1.55321551 6.36027205 0 0 Z " fill="#454B27" transform="translate(25,83)"/>
<path d="M0 0 C0.33 0 0.66 0 1 0 C1.94715208 5.581434 2.14249154 10.96475265 2.12939453 16.61962891 C2.13114685 17.55871597 2.13289917 18.49780304 2.13470459 19.46534729 C2.13908624 22.55243813 2.1361986 25.63947114 2.1328125 28.7265625 C2.13348648 30.87934378 2.1344573 33.03212499 2.13571167 35.18490601 C2.13718355 39.68870776 2.13505003 44.19248963 2.13037109 48.69628906 C2.12466726 54.46765533 2.12796019 60.23897516 2.13394356 66.01033974 C2.13755706 70.45240631 2.13640706 74.89446187 2.13381577 79.33652878 C2.13314904 81.46478659 2.13396604 83.5930454 2.13629532 85.72130203 C2.1388355 88.69394837 2.1349622 91.66651942 2.12939453 94.63916016 C2.13141876 95.5172081 2.13344299 96.39525604 2.13552856 97.2999115 C2.12153971 101.33277222 2.01080554 105.06507618 1 109 C0.34 108.67 -0.32 108.34 -1 108 C-1 106.35 -1 104.7 -1 103 C-1.66 102.67 -2.32 102.34 -3 102 C-2.34 102 -1.68 102 -1 102 C-1.00222061 100.76638229 -1.00444122 99.53276459 -1.00672913 98.26176453 C-1.02697668 86.65166141 -1.04197995 75.04156187 -1.05181217 63.43144512 C-1.05703688 57.46218316 -1.0641271 51.49293542 -1.07543945 45.52368164 C-1.08628291 39.76600313 -1.09227995 34.00833833 -1.09487724 28.25065041 C-1.09672885 26.05096025 -1.10034443 23.85127087 -1.10573006 21.65158653 C-1.11295978 18.57719663 -1.11399012 15.50286379 -1.11352539 12.4284668 C-1.1189183 11.05606087 -1.1189183 11.05606087 -1.12442017 9.65592957 C-1.1230455 8.81880432 -1.12167084 7.98167908 -1.12025452 7.1191864 C-1.12117631 6.39189174 -1.1220981 5.66459707 -1.12304783 4.91526318 C-1 3 -1 3 0 0 Z " fill="#3F401C" transform="translate(438,280)"/>
<path d="M0 0 C0.33 0.66 0.66 1.32 1 2 C49.51 2.33 98.02 2.66 148 3 C148 3.66 148 4.32 148 5 C99.16 5 50.32 5 0 5 C0 3.35 0 1.7 0 0 Z " fill="#3B3F2C" transform="translate(43,194)"/>
<path d="M0 0 C1.98 0.495 1.98 0.495 4 1 C4 1.99 4 2.98 4 4 C3.34 4 2.68 4 2 4 C2.00222061 4.94388077 2.00444122 5.88776154 2.00672913 6.86024475 C2.02712688 15.81770168 2.04205149 24.77515381 2.05181217 33.73262882 C2.05699914 38.3361668 2.06401937 42.93968582 2.07543945 47.54321289 C2.08641883 51.99769206 2.09230824 56.45215315 2.09487724 60.90664482 C2.09670468 62.59402182 2.10027217 64.281398 2.10573006 65.96876717 C2.13796649 76.36190992 1.84835701 86.63809256 1 97 C0.34 97 -0.32 97 -1 97 C-1.02315549 84.94339276 -1.04093149 72.8867908 -1.05181217 60.83016586 C-1.05703396 55.2319841 -1.06411889 49.63381754 -1.07543945 44.03564453 C-1.08629327 38.63457337 -1.09228215 33.23351684 -1.09487724 27.83243561 C-1.09672698 25.77033508 -1.10033897 23.70823536 -1.10573006 21.64614105 C-1.11297353 18.76114665 -1.11398953 15.87621295 -1.11352539 12.99121094 C-1.11712067 12.13597336 -1.12071594 11.28073578 -1.12442017 10.39958191 C-1.12235817 9.21755943 -1.12235817 9.21755943 -1.12025452 8.01165771 C-1.12117631 7.32953091 -1.1220981 6.6474041 -1.12304783 5.94460678 C-0.99132165 3.86285027 -0.56429518 2.00433968 0 0 Z " fill="#3A3A23" transform="translate(142,337)"/>
<path d="M0 0 C0 3 0 3 -2 6 C-2.66 6 -3.32 6 -4 6 C-4.10650879 6.59329102 -4.21301758 7.18658203 -4.32275391 7.79785156 C-5.09314439 10.30287037 -6.00119967 11.38770483 -7.8359375 13.234375 C-8.40570313 13.80800781 -8.97546875 14.38164063 -9.5625 14.97265625 C-10.160625 15.55917969 -10.75875 16.14570312 -11.375 16.75 C-11.96539062 17.35199219 -12.55578125 17.95398438 -13.1640625 18.57421875 C-13.73640625 19.14269531 -14.30875 19.71117188 -14.8984375 20.296875 C-15.68226807 21.07562988 -15.68226807 21.07562988 -16.48193359 21.87011719 C-18 23 -18 23 -21 23 C-21 23.99 -21 24.98 -21 26 C-22.97133986 27.37535339 -24.97681922 28.70211044 -27 30 C-29.51549332 32.33581523 -31.7304208 34.64675829 -33.8125 37.375 C-36.31501456 40.37801748 -39.09416505 42.77647463 -42.0546875 45.31640625 C-45.89082745 48.63643902 -49.22814685 52.26210241 -52.5 56.125 C-55.0715678 59.10734341 -57.40718056 61.25802694 -61 63 C-59.63055898 60.05043472 -58.12169591 57.47531189 -56 55 C-55.34 55 -54.68 55 -54 55 C-54 54.34 -54 53.68 -54 53 C-51.646679 50.44496577 -49.24619234 48.19079907 -46.5 46.0625 C-44.42100476 44.34732893 -42.97235432 42.82846861 -41.3125 40.75 C-40.549375 39.8425 -39.78625 38.935 -39 38 C-38.34 38 -37.68 38 -37 38 C-37 37.34 -37 36.68 -37 36 C-34.646679 33.44496577 -32.24619234 31.19079907 -29.5 29.0625 C-26.57679375 26.65085484 -24.39404964 23.9327108 -22 21 C-19.30194081 18.15993769 -16.50490618 15.56658849 -13.5 13.0625 C-11.21294395 11.13681861 -9.24379146 9.20805098 -7.375 6.875 C-5.11529084 4.13956259 -2.83844801 2.10856138 0 0 Z " fill="#787D44" transform="translate(387,52)"/>
<path d="M0 0 C1.57464016 0.0505975 3.14932902 0.09969908 4.72406006 0.14738464 C8.82789757 0.27560712 12.93076392 0.42386401 17.03375244 0.57659912 C21.23694203 0.72941454 25.44074414 0.86286537 29.64453125 0.99804688 C37.86269146 1.26512546 46.07992617 1.55341594 54.296875 1.85546875 C54.296875 2.18546875 54.296875 2.51546875 54.296875 2.85546875 C52.99261314 2.86759903 52.99261314 2.86759903 51.66200256 2.87997437 C43.43835813 2.95815195 35.21487226 3.0455113 26.99143314 3.14299583 C22.76442258 3.19278601 18.53743494 3.23911652 14.31030273 3.27734375 C10.22530838 3.31441616 6.14051425 3.36083338 2.05569267 3.41353226 C0.50294979 3.43196026 -1.04983583 3.44711025 -2.60264397 3.45881271 C-13.1023031 3.54072138 -22.27894477 4.09771991 -32.015625 8.41796875 C-35.23193916 9.83482871 -38.25891285 11.12735739 -41.703125 11.85546875 C-38.18490251 7.41944909 -33.94922314 6.33513746 -28.703125 4.85546875 C-28.703125 4.19546875 -28.703125 3.53546875 -28.703125 2.85546875 C-19.00733115 -0.29115569 -10.02991283 -0.40080778 0 0 Z " fill="#434435" transform="translate(111.703125,41.14453125)"/>
<path d="M0 0 C6.45974108 1.24229768 9.68337514 3.96930599 14.2109375 8.6171875 C14.86454254 9.27075226 15.51814758 9.92431702 16.19155884 10.59768677 C17.56388266 11.97535109 18.93011742 13.35910487 20.29052734 14.74853516 C22.37523404 16.87523875 24.4806151 18.97967465 26.58984375 21.08203125 C27.92314687 22.42582258 29.25522194 23.77083374 30.5859375 25.1171875 C31.21503021 25.74648163 31.84412292 26.37577576 32.49227905 27.0241394 C33.07023224 27.61800446 33.64818542 28.21186951 34.24365234 28.82373047 C35.00807144 29.60077835 35.00807144 29.60077835 35.78793335 30.39352417 C37.1758268 32.23304123 37.59075758 33.75044334 38 36 C34.82461668 35.65978036 33.97723135 34.97533396 31.75 32.5625 C30 30 30 30 30 28 C29.195625 27.6596875 29.195625 27.6596875 28.375 27.3125 C23.18143846 24.44237388 19.95207523 21.0607004 17 16 C16.01 15.67 15.02 15.34 14 15 C12.64172029 13.35360035 11.30745749 11.68704193 10 10 C9.34 9.67 8.68 9.34 8 9 C8 8.34 8 7.68 8 7 C7.4225 6.773125 6.845 6.54625 6.25 6.3125 C3.4336339 4.66961977 1.91922886 2.60466773 0 0 Z " fill="#686D33" transform="translate(304,224)"/>
<path d="M0 0 C8.44039195 -0.04628524 16.88073111 -0.08184969 25.32121849 -0.10362434 C29.24023284 -0.11407365 33.15916053 -0.12825362 37.078125 -0.15087891 C40.85823039 -0.17256661 44.63825228 -0.18455998 48.41841507 -0.18975449 C49.86255839 -0.19345759 51.306697 -0.2006886 52.7508049 -0.21146011 C54.76920894 -0.22592017 56.78769652 -0.22681645 58.80615234 -0.22705078 C60.53156754 -0.23371262 60.53156754 -0.23371262 62.2918396 -0.24050903 C65 0 65 0 67 2 C59.29811181 2.17754176 51.5960462 2.34345412 43.89359951 2.49477577 C40.31652945 2.56541071 36.73963243 2.63995621 33.1628418 2.72363281 C29.70706063 2.80433134 26.25120739 2.87450391 22.79506111 2.93757248 C20.84356072 2.97587617 18.89228028 3.02490412 16.94102478 3.0741272 C10.88625506 3.17584621 5.6928022 3.16201043 0 1 C0 0.67 0 0.34 0 0 Z " fill="#122004" transform="translate(319,23)"/>
<path d="M0 0 C0.99 0.33 1.98 0.66 3 1 C3.04934656 6.80239614 3.08569402 12.60467081 3.10986328 18.40722656 C3.11993627 20.38218309 3.13359521 22.35712466 3.15087891 24.33203125 C3.17507039 27.16670418 3.18646991 30.00118038 3.1953125 32.8359375 C3.20563507 33.72243988 3.21595764 34.60894226 3.22659302 35.52230835 C3.2269907 37.68285952 3.12272534 39.84293718 3 42 C2.34 42.66 1.68 43.32 1 44 C-0.19536461 39.31367437 -0.12759836 34.77970671 -0.09765625 29.98046875 C-0.0962413 29.12189774 -0.09482635 28.26332672 -0.09336853 27.3787384 C-0.08779057 24.64828951 -0.07524214 21.91792393 -0.0625 19.1875 C-0.05748215 17.3313814 -0.05291974 15.4752615 -0.04882812 13.61914062 C-0.03782836 9.0793952 -0.02057893 4.5397117 0 0 Z " fill="#42451E" transform="translate(437,113)"/>
<path d="M0 0 C0.33 0 0.66 0 1 0 C0.48758893 6.02900687 -0.069785 12.02004643 -1 18 C-6.63526965 19.20484722 -12.14536115 19.1129643 -17.875 19.0625 C-18.84953125 19.05798828 -19.8240625 19.05347656 -20.828125 19.04882812 C-23.21881434 19.03710906 -25.6093744 19.02070219 -28 19 C-28 21.31 -28 23.62 -28 26 C-28.33 26 -28.66 26 -29 26 C-29.33 22.7 -29.66 19.4 -30 16 C-21.09 16 -12.18 16 -3 16 C-2.34 12.37 -1.68 8.74 -1 5 C-0.67 3.35 -0.34 1.7 0 0 Z " fill="#282915" transform="translate(191,200)"/>
<path d="M0 0 C0 3 0 3 -2 6 C-2.66 6 -3.32 6 -4 6 C-4.10650879 6.59329102 -4.21301758 7.18658203 -4.32275391 7.79785156 C-5.09314439 10.30287037 -6.00119967 11.38770483 -7.8359375 13.234375 C-8.40570313 13.80800781 -8.97546875 14.38164063 -9.5625 14.97265625 C-10.160625 15.55917969 -10.75875 16.14570312 -11.375 16.75 C-11.96539062 17.35199219 -12.55578125 17.95398438 -13.1640625 18.57421875 C-13.73640625 19.14269531 -14.30875 19.71117188 -14.8984375 20.296875 C-15.42099121 20.81604492 -15.94354492 21.33521484 -16.48193359 21.87011719 C-18 23 -18 23 -21 23 C-21 23.99 -21 24.98 -21 26 C-22.32 26.33 -23.64 26.66 -25 27 C-24.74802396 23.59832352 -23.83931463 22.86073934 -21.1875 20.5625 C-20.37539063 19.93021484 -20.37539063 19.93021484 -19.546875 19.28515625 C-17.34782824 17.45817043 -15.74686335 15.25401723 -14 13 C-9.6143363 8.36372694 -4.79173885 4.20712583 0 0 Z " fill="#7B813C" transform="translate(387,52)"/>
<path d="M0 0 C10.00496705 -0.06941263 20.00987712 -0.12276667 30.01503563 -0.15543652 C34.66050069 -0.17111389 39.30580141 -0.19238972 43.95117188 -0.22631836 C48.43154141 -0.25883827 52.91175257 -0.27683739 57.39223099 -0.28463173 C59.10433065 -0.29018854 60.81642133 -0.30103921 62.52845383 -0.31719017 C64.92069195 -0.33886699 67.31226983 -0.34197109 69.70458984 -0.34057617 C70.41740616 -0.351362 71.13022247 -0.36214783 71.86463928 -0.3732605 C73.83627319 -0.36076355 73.83627319 -0.36076355 77 0 C77.99 1.485 77.99 1.485 79 3 C78.01 3.66 77.02 4.32 76 5 C76 4.34 76 3.68 76 3 C71.93068684 2.03633048 68.09156214 1.84660912 63.91479492 1.79467773 C63.22156128 1.78477814 62.52832764 1.77487854 61.81408691 1.76467896 C59.53624823 1.73324125 57.25838873 1.70837716 54.98046875 1.68359375 C53.39577206 1.66300888 51.81108067 1.64201201 50.22639465 1.62062073 C46.06556505 1.56555829 41.90468721 1.51607955 37.74377441 1.46777344 C33.49385306 1.41744248 29.24400134 1.36181707 24.99414062 1.30664062 C16.66281938 1.19925279 8.33143969 1.09776521 0 1 C0 0.67 0 0.34 0 0 Z " fill="#2D340E" transform="translate(65,333)"/>
<path d="M0 0 C0.33 0 0.66 0 1 0 C1.01458252 1.03592285 1.02916504 2.0718457 1.04418945 3.13916016 C1.33363022 22.25730833 1.62767665 41.12347306 5 60 C2.65085508 57.65085508 2.26859643 56.04320554 1.375 52.875 C1.11460938 51.96492188 0.85421875 51.05484375 0.5859375 50.1171875 C0.39257812 49.41851562 0.19921875 48.71984375 0 48 C-0.33 48 -0.66 48 -1 48 C-1.07131276 37.17531758 -0.85665154 26.38053125 -0.5 15.5625 C-0.45160633 14.0410225 -0.40342827 12.51953812 -0.35546875 10.99804688 C-0.23945122 7.33194907 -0.12056309 3.66595148 0 0 Z " fill="#3D451C" transform="translate(43,337)"/>
<path d="M0 0 C3.87302138 1.14430177 7.00263439 2.23320098 10 5 C10 5.66 10 6.32 10 7 C10.639375 7.268125 11.27875 7.53625 11.9375 7.8125 C14 9 14 9 15 12 C15.66 12 16.32 12 17 12 C18.34919532 13.65385233 19.68133728 15.321702 21 17 C21.99 17.66 22.98 18.32 24 19 C24 19.66 24 20.32 24 21 C21.21788056 20.62403791 19.4120716 20.32681541 17.1875 18.5625 C16 17 16 17 16 15 C15.34 15 14.68 15 14 15 C14 14.34 14 13.68 14 13 C13.44828125 12.77441406 12.8965625 12.54882812 12.328125 12.31640625 C9.30047473 10.60446306 7.18674251 8.41342989 4.75 5.9375 C3.85796875 5.03902344 2.9659375 4.14054688 2.046875 3.21484375 C0 1 0 1 0 0 Z " fill="#778335" transform="translate(237,157)"/>
<path d="M0 0 C2.475 0.495 2.475 0.495 5 1 C5 1.66 5 2.32 5 3 C5.56074219 3.25910156 6.12148438 3.51820313 6.69921875 3.78515625 C9.2574341 5.1359287 11.47896571 6.72869143 13.8125 8.4375 C17.77123096 11.25259757 21.45349026 13.31976814 26 15 C26 15.99 26 16.98 26 18 C21.97351715 17.40077751 18.98182467 16.10666692 15.4375 14.125 C14.50808594 13.61195313 13.57867187 13.09890625 12.62109375 12.5703125 C10.26838419 11.16079053 8.0783679 9.78984154 6 8 C6 7.34 6 6.68 6 6 C5.38125 5.7525 4.7625 5.505 4.125 5.25 C1.64931313 3.79371361 1.04874998 2.62187494 0 0 Z " fill="#3A391D" transform="translate(57,415)"/>
<path d="M0 0 C0 0.99 0 1.98 0 3 C-1.33333333 4.33333333 -2.66666667 5.66666667 -4 7 C-4 7.99 -4 8.98 -4 10 C-5.43359375 11.5078125 -5.43359375 11.5078125 -7.4375 13.125 C-12.24668139 17.14268821 -16.61757426 21.52627373 -21 26 C-21.99 25.67 -22.98 25.34 -24 25 C-21.08089124 21.38586534 -18.16037575 18.01731651 -14.5625 15.0625 C-11.1878289 12.27764973 -8.40856535 9.16361737 -5.578125 5.8359375 C-3.81554469 3.7854109 -1.95028928 1.87227771 0 0 Z " fill="#6A6934" transform="translate(406,108)"/>
<path d="M0 0 C0.66 0 1.32 0 2 0 C2.05386629 2.12472576 2.09273071 4.24983652 2.125 6.375 C2.14820313 7.55835937 2.17140625 8.74171875 2.1953125 9.9609375 C2 13 2 13 0 15 C-0.2459409 17.9366021 -0.37375252 20.78562112 -0.4140625 23.7265625 C-0.43342865 24.58937836 -0.4527948 25.45219421 -0.4727478 26.34115601 C-0.53262204 29.10233616 -0.57895998 31.86355784 -0.625 34.625 C-0.66317259 36.49481005 -0.70222389 38.36460238 -0.7421875 40.234375 C-0.83832992 44.82277309 -0.92233166 49.41125351 -1 54 C-1.33 54 -1.66 54 -2 54 C-2.04975529 47.9168413 -2.08588679 41.83380332 -2.10986328 35.75048828 C-2.11986782 33.68471206 -2.13347571 31.6189498 -2.15087891 29.55322266 C-2.17537271 26.56930068 -2.18653886 23.58556732 -2.1953125 20.6015625 C-2.20563507 19.69072906 -2.21595764 18.77989563 -2.22659302 17.84146118 C-2.22765086 11.67800251 -1.42250017 5.99474294 0 0 Z " fill="#4C4F2E" transform="translate(25,83)"/>
<path d="M0 0 C0.66 0.33 1.32 0.66 2 1 C-0.61691164 3.67470955 -3.24481708 6.33834481 -5.875 9 C-6.62136719 9.763125 -7.36773437 10.52625 -8.13671875 11.3125 C-8.85214844 12.034375 -9.56757813 12.75625 -10.3046875 13.5 C-10.96452637 14.1703125 -11.62436523 14.840625 -12.30419922 15.53125 C-14 17 -14 17 -16 17 C-16.2475 17.598125 -16.495 18.19625 -16.75 18.8125 C-18.16370012 21.28647521 -19.65055383 22.43370255 -22 24 C-21.50441205 19.64645044 -20.19912401 17.69933969 -17.0625 14.6875 C-16.35222656 13.99011719 -15.64195312 13.29273438 -14.91015625 12.57421875 C-13 11 -13 11 -11 11 C-11 10.34 -11 9.68 -11 9 C-7.96395254 5.61697568 -4.96293257 3.20162921 -1 1 C-0.67 0.67 -0.34 0.34 0 0 Z " fill="#71703C" transform="translate(381,135)"/>
<path d="M0 0 C0.33 0.66 0.66 1.32 1 2 C1.99 2 2.98 2 4 2 C4.99 3.485 4.99 3.485 6 5 C7.051875 6.2065625 7.051875 6.2065625 8.125 7.4375 C10 10 10 10 10 14 C10.66 14 11.32 14 12 14 C12.66 15.98 13.32 17.96 14 20 C13.01 20 12.02 20 11 20 C6.07409052 14.40874255 2.44641582 7.57518962 -1 1 C-0.67 0.67 -0.34 0.34 0 0 Z " fill="#3C3B21" transform="translate(32,410)"/>
<path d="M0 0 C7.92 0 15.84 0 24 0 C19.5 3.375 19.5 3.375 15.671875 3.29296875 C14.87265625 3.28330078 14.0734375 3.27363281 13.25 3.26367188 C12.425 3.23853516 11.6 3.21339844 10.75 3.1875 C9.90953125 3.17396484 9.0690625 3.16042969 8.203125 3.14648438 C6.13514062 3.11123464 4.06748729 3.0574302 2 3 C1.34 4.32 0.68 5.64 0 7 C0 4.69 0 2.38 0 0 Z " fill="#2E3216" transform="translate(43,216)"/>
<path d="M0 0 C0.99 0.66 1.98 1.32 3 2 C2.57045059 8.25107435 1.98598493 14.04204521 0 20 C-0.33 20 -0.66 20 -1 20 C-0.85711146 18.29141784 -0.71053911 16.5831436 -0.5625 14.875 C-0.48128906 13.92367187 -0.40007812 12.97234375 -0.31640625 11.9921875 C0.00215307 8.97963891 0.50197881 5.98812716 1 3 C-11.21 3 -23.42 3 -36 3 C-36 2.67 -36 2.34 -36 2 C-24.12 2 -12.24 2 0 2 C0 1.34 0 0.68 0 0 Z " fill="#363919" transform="translate(191,197)"/>
<path d="M0 0 C0.66 0 1.32 0 2 0 C2.36625971 4.51720311 2.36625971 4.51720311 0.625 6.8125 C-1 8 -1 8 -3 8 C-3.33 8.66 -3.66 9.32 -4 10 C-3.34 10.33 -2.68 10.66 -2 11 C-2.804375 11.78375 -3.60875 12.5675 -4.4375 13.375 C-6.98690417 15.71982856 -6.98690417 15.71982856 -8 18 C-9.32 17.67 -10.64 17.34 -12 17 C-12 17.66 -12 18.32 -12 19 C-12.66 19 -13.32 19 -14 19 C-11.96733145 14.42649575 -9.00284039 10.97838087 -5.4375 7.5 C-2.91778624 5.10760377 -2.91778624 5.10760377 -1.3125 2.1875 C-0.879375 1.465625 -0.44625 0.74375 0 0 Z " fill="#474B32" transform="translate(429,404)"/>
<path d="M0 0 C0 0.66 0 1.32 0 2 C-0.66 2 -1.32 2 -2 2 C-2.33 3.32 -2.66 4.64 -3 6 C-4.65 6.33 -6.3 6.66 -8 7 C-8 7.66 -8 8.32 -8 9 C-10.08047297 9.5321441 -12.16452293 10.05031786 -14.25 10.5625 C-15.41015625 10.85253906 -16.5703125 11.14257812 -17.765625 11.44140625 C-20.83169678 11.97093314 -22.13030432 11.8538163 -25 11 C-23.84242188 10.54109375 -22.68484375 10.0821875 -21.4921875 9.609375 C-19.95298197 8.98993863 -18.41392742 8.370127 -16.875 7.75 C-16.11445313 7.44964844 -15.35390625 7.14929688 -14.5703125 6.83984375 C-11.01455025 5.39914698 -7.73647087 3.94825332 -4.5703125 1.765625 C-2 0 -2 0 0 0 Z " fill="#4A4F33" transform="translate(414,423)"/>
<path d="M0 0 C0 0.33 0 0.66 0 1 C-3.26988299 1.67138621 -6.54105049 2.33629263 -9.8125 3 C-10.74126953 3.19078125 -11.67003906 3.3815625 -12.62695312 3.578125 C-13.51962891 3.75859375 -14.41230469 3.9390625 -15.33203125 4.125 C-16.15421143 4.29257812 -16.9763916 4.46015625 -17.82348633 4.6328125 C-20 5 -20 5 -23 5 C-23 5.66 -23 6.32 -23 7 C-26.3 7.66 -29.6 8.32 -33 9 C-33.66 8.01 -34.32 7.02 -35 6 C-31.14258694 5.13607427 -27.28313905 4.28196224 -23.42163086 3.43652344 C-21.46941822 3.00702224 -19.51886982 2.5699789 -17.56835938 2.1328125 C-16.32763672 1.86210937 -15.08691406 1.59140625 -13.80859375 1.3125 C-12.10401001 0.93544922 -12.10401001 0.93544922 -10.36499023 0.55078125 C-6.85217863 -0.02419539 -3.55314656 -0.09480324 0 0 Z " fill="#4D541A" transform="translate(240,278)"/>
<path d="M0 0 C0.33 0 0.66 0 1 0 C1 1.98 1 3.96 1 6 C1.66 6.33 2.32 6.66 3 7 C2.02163358 15.63264485 0.90471211 23.76998236 -2 32 C-2.66 32 -3.32 32 -4 32 C-3.86722656 31.40832031 -3.73445313 30.81664062 -3.59765625 30.20703125 C-3.42105469 29.41683594 -3.24445313 28.62664062 -3.0625 27.8125 C-2.88847656 27.03519531 -2.71445312 26.25789063 -2.53515625 25.45703125 C-2.35855469 24.64621094 -2.18195313 23.83539063 -2 23 C-1.81308594 22.24460937 -1.62617188 21.48921875 -1.43359375 20.7109375 C-0.85167121 17.07261099 -0.93355386 13.48364916 -1 9.8125 C-1.13435082 2.26870163 -1.13435082 2.26870163 0 0 Z " fill="#37391D" transform="translate(455,374)"/>
<path d="M0 0 C7.80205918 1.01765989 11.87754249 6.41373849 17 12 C16.67 12.99 16.34 13.98 16 15 C15.34 15 14.68 15 14 15 C12.64613064 13.34997172 11.31321858 11.6825613 10 10 C9.34 9.67 8.68 9.34 8 9 C8 8.34 8 7.68 8 7 C7.4225 6.773125 6.845 6.54625 6.25 6.3125 C3.4336339 4.66961977 1.91922886 2.60466773 0 0 Z " fill="#666C2B" transform="translate(304,224)"/>
<path d="M0 0 C8.71859838 0.38749326 16.60048244 5.2625015 23 11 C22.67 11.66 22.34 12.32 22 13 C20.02 12.34 18.04 11.68 16 11 C16 10.34 16 9.68 16 9 C15.29875 8.7525 14.5975 8.505 13.875 8.25 C10.62914068 6.83875682 7.94128133 4.96085422 5 3 C3.35380887 2.28426473 1.69271945 1.5974304 0 1 C0 0.67 0 0.34 0 0 Z " fill="#464629" transform="translate(404,28)"/>
<path d="M0 0 C0.99 0.99 1.98 1.98 3 3 C3 3.99 3 4.98 3 6 C3.99 6 4.98 6 6 6 C6 10.29 6 14.58 6 19 C5.01 19 4.02 19 3 19 C3 16.03 3 13.06 3 10 C2.34 10 1.68 10 1 10 C0.67 6.7 0.34 3.4 0 0 Z " fill="#5D5B2C" transform="translate(434,87)"/>
<path d="M0 0 C0.66 0.33 1.32 0.66 2 1 C-1.39323978 4.57888816 -4.70714491 7.92759742 -8.8125 10.6875 C-12.062519 12.62966177 -12.062519 12.62966177 -12.9375 15.1875 C-14.32842009 17.56024603 -15.32731932 17.60321177 -17.9375 18.3125 C-20.98212796 19.02386167 -21.91017764 19.02994079 -25 18 C-24.33355469 17.67128906 -23.66710937 17.34257812 -22.98046875 17.00390625 C-14.35768179 12.55382459 -6.7526101 6.99694797 0 0 Z " fill="#211D0C" transform="translate(434,428)"/>
<path d="M0 0 C0.66 0 1.32 0 2 0 C2.04241723 2.33294775 2.04092937 4.66702567 2 7 C1.67 7.33 1.34 7.66 1 8 C0.6068352 9.67884238 0.25914548 11.36850045 -0.0625 13.0625 C-0.32740234 14.44115234 -0.32740234 14.44115234 -0.59765625 15.84765625 C-0.73042969 16.55792969 -0.86320313 17.26820313 -1 18 C-1.99 18 -2.98 18 -4 18 C-3.48914188 11.56318772 -2.27057103 6.04057576 0 0 Z " fill="#84894A" transform="translate(207,200)"/>
<path d="M0 0 C-0.34021964 3.17538332 -1.02466604 4.02276865 -3.4375 6.25 C-6 8 -6 8 -8 8 C-8.33 8.99 -8.66 9.98 -9 11 C-9.99 11 -10.98 11 -12 11 C-12 11.99 -12 12.98 -12 14 C-13.32 13.67 -14.64 13.34 -16 13 C-15.0479279 11.99403703 -14.08812654 10.99538437 -13.125 10 C-12.32449219 9.1646875 -12.32449219 9.1646875 -11.5078125 8.3125 C-10 7 -10 7 -8 7 C-7.731875 6.401875 -7.46375 5.80375 -7.1875 5.1875 C-5.24288471 1.60531394 -4.204264 0 0 0 Z " fill="#727D37" transform="translate(295,146)"/>
<path d="M0 0 C0.33 0 0.66 0 1 0 C1.31340141 6.37249535 0.49275475 11.36899585 -1.33203125 17.46875 C-2.09983787 20.37833296 -2.2429728 23.00333552 -2 26 C-2.66 25.67 -3.32 25.34 -4 25 C-6.475 29.455 -6.475 29.455 -9 34 C-9.33 33.34 -9.66 32.68 -10 32 C-8.97466078 29.58140573 -7.8915966 27.23788484 -6.75 24.875 C-2.98028631 16.75532964 -1.23235238 8.82599036 0 0 Z " fill="#22230B" transform="translate(454,383)"/>
<path d="M0 0 C7.26 0.66 14.52 1.32 22 2 C22 2.33 22 2.66 22 3 C14.03505901 4.60037454 7.82947661 5.38865388 0 3 C0 2.01 0 1.02 0 0 Z " fill="#2E2B11" transform="translate(81,451)"/>
<path d="M0 0 C0.86238281 0.33064453 0.86238281 0.33064453 1.7421875 0.66796875 C-1.204351 2.46863117 -4.14583185 4.1696077 -7.2578125 5.66796875 C-7.2578125 6.65796875 -7.2578125 7.64796875 -7.2578125 8.66796875 C-8.2478125 8.66796875 -9.2378125 8.66796875 -10.2578125 8.66796875 C-10.5878125 9.65796875 -10.9178125 10.64796875 -11.2578125 11.66796875 C-12.8203125 13.35546875 -12.8203125 13.35546875 -14.2578125 14.66796875 C-14.5878125 13.34796875 -14.9178125 12.02796875 -15.2578125 10.66796875 C-14.2678125 10.33796875 -13.2778125 10.00796875 -12.2578125 9.66796875 C-11.58109801 8.33970683 -10.915693 7.0056591 -10.2578125 5.66796875 C-8.453125 3.9296875 -8.453125 3.9296875 -6.3828125 2.35546875 C-5.70476563 1.82308594 -5.02671875 1.29070313 -4.328125 0.7421875 C-2.2578125 -0.33203125 -2.2578125 -0.33203125 0 0 Z " fill="#605841" transform="translate(60.2578125,36.33203125)"/>
<path d="M0 0 C6.47332449 5.25957615 12.35538123 11.03307185 17 18 C16.67 18.99 16.34 19.98 16 21 C15.48050781 20.34773438 14.96101563 19.69546875 14.42578125 19.0234375 C12.28863595 16.34509275 10.14537805 13.67175334 8 11 C7.49210937 10.36320312 6.98421875 9.72640625 6.4609375 9.0703125 C4.42028726 6.55392785 2.72562082 4.81708055 0 3 C0 2.01 0 1.02 0 0 Z " fill="#585445" transform="translate(428,40)"/>
<path d="M0 0 C0.99 0.33 1.98 0.66 3 1 C-2.13434787 6.63798962 -7.11734942 10.6861312 -14 14 C-12.75619293 10.2685788 -11.2196681 9.36809385 -8.125 7 C-5.25035616 4.78744614 -2.4924909 2.64104996 0 0 Z " fill="#444125" transform="translate(435,429)"/>
<path d="M0 0 C4.68191549 0.45738073 6.63104174 2.19110394 9.8125 5.5625 C10.60269531 6.38878906 11.39289063 7.21507812 12.20703125 8.06640625 C13.09455078 9.02353516 13.09455078 9.02353516 14 10 C13.34 10.66 12.68 11.32 12 12 C10.87187697 10.89902432 9.74762189 9.79408444 8.625 8.6875 C7.99851563 8.07261719 7.37203125 7.45773438 6.7265625 6.82421875 C5 5 5 5 3 2 C2.01 2.33 1.02 2.66 0 3 C-1.21869929 5.50447516 -1.21869929 5.50447516 -2 8 C-2.6875 6.25 -2.6875 6.25 -3 4 C-1.5625 1.75 -1.5625 1.75 0 0 Z " fill="#808342" transform="translate(220,139)"/>
<path d="M0 0 C0.83595703 0.00451172 1.67191406 0.00902344 2.53320312 0.01367188 C4.58466649 0.02539452 6.63609273 0.04332797 8.6875 0.0625 C7.01357931 2.13418402 6.20856974 3.00294082 3.51098633 3.3112793 C2.68880615 3.25367432 1.86662598 3.19606934 1.01953125 3.13671875 C0.12685547 3.08193359 -0.76582031 3.02714844 -1.68554688 2.97070312 C-3.07870117 2.86145508 -3.07870117 2.86145508 -4.5 2.75 C-5.44037109 2.68876953 -6.38074219 2.62753906 -7.34960938 2.56445312 C-9.67190957 2.41120489 -11.99221458 2.2433714 -14.3125 2.0625 C-14.3125 1.7325 -14.3125 1.4025 -14.3125 1.0625 C-9.54157044 -0.17152862 -4.88780554 -0.05015112 0 0 Z " fill="#152205" transform="translate(111.3125,22.9375)"/>
<path d="M0 0 C2.16118902 3.24178353 3.08783734 6.15599131 4.21875 9.84375 C4.99267788 12.24694441 4.99267788 12.24694441 7 15 C7.39387788 17.32387947 7.73486085 19.65793749 8 22 C3.24812957 17.93094966 0.5137409 10.75907976 -0.3203125 4.65625 C-0.3125 2.75 -0.3125 2.75 0 0 Z " fill="#1F200B" transform="translate(43,384)"/>
<path d="M0 0 C0.33 0.99 0.66 1.98 1 3 C-6.92 2.67 -14.84 2.34 -23 2 C-23 1.67 -23 1.34 -23 1 C-15.31068715 -0.06059488 -7.75493514 -0.09928082 0 0 Z " fill="#222112" transform="translate(143,217)"/>
<path d="M0 0 C3.87653115 1.14533875 7.06012356 2.16511915 10 5 C11.125 7.5 11.125 7.5 12 10 C12.99 11.485 12.99 11.485 14 13 C10.12060491 11.41379873 7.66638913 8.90079013 4.75 5.9375 C3.85796875 5.03902344 2.9659375 4.14054688 2.046875 3.21484375 C0 1 0 1 0 0 Z " fill="#5F6628" transform="translate(237,157)"/>
<path d="M0 0 C0.96421875 0.55429687 1.9284375 1.10859375 2.921875 1.6796875 C4.19788361 2.41151597 5.47392712 3.1432836 6.75 3.875 C7.70132813 4.42220703 7.70132813 4.42220703 8.671875 4.98046875 C11.74250368 6.7396831 14.80851875 8.46873374 18 10 C18 10.66 18 11.32 18 12 C12.04242932 10.43221824 3.9585203 7.31532653 0.703125 1.8046875 C0.47109375 1.20914062 0.2390625 0.61359375 0 0 Z " fill="#49422E" transform="translate(55,438)"/>
<path d="M0 0 C1.98 0.495 1.98 0.495 4 1 C3.01 2.98 2.02 4.96 1 7 C5.455 6.505 5.455 6.505 10 6 C9.01 6.33 8.02 6.66 7 7 C7 7.66 7 8.32 7 9 C4.125 9.125 4.125 9.125 1 9 C0.34 8.34 -0.32 7.68 -1 7 C-0.625 3.375 -0.625 3.375 0 0 Z " fill="#697236" transform="translate(189,280)"/>
<path d="M0 0 C0.33 0 0.66 0 1 0 C1 4.29 1 8.58 1 13 C0.01 13 -0.98 13 -2 13 C-3.125 6.375 -3.125 6.375 -2 3 C-1.34 3 -0.68 3 0 3 C0 2.01 0 1.02 0 0 Z " fill="#7C7F4B" transform="translate(194,263)"/>
<path d="M0 0 C0 0.99 0 1.98 0 3 C-1.38547596 4.14893128 -2.77701447 5.29138951 -4.19921875 6.39453125 C-7.64802981 9.46928472 -10.26975481 13.29235934 -13 17 C-13.33 16.01 -13.66 15.02 -14 14 C-12.23304141 12.03804598 -10.46168211 10.08040373 -8.6875 8.125 C-8.18798828 7.56941406 -7.68847656 7.01382813 -7.17382812 6.44140625 C-4.8912844 3.93211977 -2.83639832 1.89093222 0 0 Z " fill="#3D3B23" transform="translate(67,54)"/>
<path d="M0 0 C0 0.66 0 1.32 0 2 C-6.09339169 3.88341198 -10.72532201 4.0748291 -17 3 C-17 2.67 -17 2.34 -17 2 C-11.19233704 0.4943096 -6.0018137 -0.21824777 0 0 Z " fill="#5A5F29" transform="translate(338,260)"/>
<path d="M0 0 C0.66 0.33 1.32 0.66 2 1 C-1.3618226 5.25171681 -4.74828319 8.6381774 -9 12 C-9.33 11.01 -9.66 10.02 -10 9 C-8.89902432 7.87187697 -7.79408444 6.74762189 -6.6875 5.625 C-6.07261719 4.99851563 -5.45773437 4.37203125 -4.82421875 3.7265625 C-3 2 -3 2 0 0 Z " fill="#626026" transform="translate(322,193)"/>
<path d="M0 0 C0.99 0.33 1.98 0.66 3 1 C1.6875 3 1.6875 3 0 5 C-0.99 5 -1.98 5 -3 5 C-3 6.32 -3 7.64 -3 9 C-3.99 9 -4.98 9 -6 9 C-6 9.66 -6 10.32 -6 11 C-6.66 11 -7.32 11 -8 11 C-7.4409112 7.75728494 -6.5867822 6.06942576 -4 4 C-3.34 4 -2.68 4 -2 4 C-1.34 2.68 -0.68 1.36 0 0 Z " fill="#7A7D40" transform="translate(304,134)"/>
<path d="M0 0 C1.57499749 3.14999498 0.70833498 5.63540882 0 9 C-0.48597656 9.47179687 -0.97195312 9.94359375 -1.47265625 10.4296875 C-3.42002848 12.43184513 -3.67502373 13.96743362 -4.1875 16.6875 C-4.42533203 17.89986328 -4.42533203 17.89986328 -4.66796875 19.13671875 C-4.77753906 19.75160156 -4.88710938 20.36648437 -5 21 C-5.33 21 -5.66 21 -6 21 C-6.72786324 13.43022233 -4.29865466 7.75953824 -1 1 C-0.67 0.67 -0.34 0.34 0 0 Z " fill="#21230A" transform="translate(49,73)"/>
<path d="M0 0 C0.66 0 1.32 0 2 0 C2 0.66 2 1.32 2 2 C1.34 2 0.68 2 0 2 C0 3.98 0 5.96 0 8 C-0.99 8 -1.98 8 -3 8 C-3 9.65 -3 11.3 -3 13 C-3.99 13 -4.98 13 -6 13 C-2.98165138 2.98165138 -2.98165138 2.98165138 0 0 Z " fill="#5C5C41" transform="translate(36,59)"/>
<path d="M0 0 C-0.84304687 0.38671875 -1.68609375 0.7734375 -2.5546875 1.171875 C-3.65039062 1.69265625 -4.74609375 2.2134375 -5.875 2.75 C-6.96554688 3.26046875 -8.05609375 3.7709375 -9.1796875 4.296875 C-12.04202519 6.02537809 -12.93521458 6.89999181 -14 10 C-15.32 9.34 -16.64 8.68 -18 8 C-16.44210317 6.86863414 -14.87846143 5.74517679 -13.3125 4.625 C-12.44238281 3.99851562 -11.57226562 3.37203125 -10.67578125 2.7265625 C-4.25310791 -1.41770264 -4.25310791 -1.41770264 0 0 Z " fill="#1D1C0B" transform="translate(83,46)"/>
<path d="M0 0 C0.66 0 1.32 0 2 0 C2.22151549 1.79008467 2.42682213 3.58218162 2.625 5.375 C2.74101562 6.37273437 2.85703125 7.37046875 2.9765625 8.3984375 C2.98429687 9.25695312 2.99203125 10.11546875 3 11 C2.34 11.66 1.68 12.32 1 13 C0.01 13 -0.98 13 -2 13 C-1.34 8.71 -0.68 4.42 0 0 Z " fill="#4D512F" transform="translate(435,383)"/>
<path d="M0 0 C1.32 0 2.64 0 4 0 C3.67 4.29 3.34 8.58 3 13 C0.89172945 9.83759418 0.66182535 8.49342531 0.375 4.8125 C0.30023437 3.91144531 0.22546875 3.01039063 0.1484375 2.08203125 C0.09945313 1.39496094 0.05046875 0.70789063 0 0 Z " fill="#565639" transform="translate(24,386)"/>
<path d="M0 0 C4.31730413 0.47409648 6.33647461 3.03396703 9.25 6.0625 C10.14203125 6.98160156 11.0340625 7.90070313 11.953125 8.84765625 C12.62859375 9.55792969 13.3040625 10.26820313 14 11 C13.67 11.66 13.34 12.32 13 13 C10.8303243 11.02404535 8.66418031 9.04445723 6.5 7.0625 C5.87996094 6.49853516 5.25992187 5.93457031 4.62109375 5.35351562 C3.06178382 3.92272025 1.52862521 2.46353265 0 1 C0 0.67 0 0.34 0 0 Z " fill="#777942" transform="translate(319,237)"/>
<path d="M0 0 C0.99 0.33 1.98 0.66 3 1 C1.77937479 2.44475986 0.54807874 3.88050764 -0.6875 5.3125 C-1.37199219 6.11300781 -2.05648438 6.91351563 -2.76171875 7.73828125 C-5.01677668 10.01695236 -7.19152343 11.48017643 -10 13 C-8.63055898 10.05043472 -7.12169591 7.47531189 -5 5 C-4.34 5 -3.68 5 -3 5 C-3 4.34 -3 3.68 -3 3 C-1.5 1.375 -1.5 1.375 0 0 Z " fill="#7F8245" transform="translate(336,102)"/>
<path d="M0 0 C-0.59167969 0.25394531 -1.18335937 0.50789063 -1.79296875 0.76953125 C-5.30143305 2.2976878 -8.63131886 3.76757058 -11.875 5.8125 C-12.57625 6.204375 -13.2775 6.59625 -14 7 C-14.99 6.67 -15.98 6.34 -17 6 C-5.85871873 -1.88041846 -5.85871873 -1.88041846 0 0 Z " fill="#3E3D29" transform="translate(87,46)"/>
<path d="M0 0 C-3.45207476 1.96529009 -6.88476226 2.7746477 -10.75 3.625 C-11.92046875 3.88539062 -13.0909375 4.14578125 -14.296875 4.4140625 C-15.18890625 4.60742188 -16.0809375 4.80078125 -17 5 C-16.67 4.01 -16.34 3.02 -16 2 C-10.92679142 -0.03581546 -5.39500547 -0.2295747 0 0 Z " fill="#524F33" transform="translate(92,24)"/>
<path d="M0 0 C1 3 1 3 -0.109375 5.62890625 C-0.65078125 6.59699219 -1.1921875 7.56507813 -1.75 8.5625 C-2.54664063 10.01849609 -2.54664063 10.01849609 -3.359375 11.50390625 C-5 14 -5 14 -8 16 C-6.42986223 10.03347646 -3.24970218 5.17090975 0 0 Z " fill="#444432" transform="translate(450,407)"/>
<path d="M0 0 C3.05740483 2.75166435 4.84750161 5.01864192 6 9 C5.67 9.66 5.34 10.32 5 11 C5.28241883 13.3400417 5.61250787 15.67504723 6 18 C3.08564295 13.62846443 1.9436027 9.12241464 1 4 C0.67516582 2.66457061 0.3449145 1.33038449 0 0 Z " fill="#414327" transform="translate(446,62)"/>
<path d="M0 0 C0.66 0 1.32 0 2 0 C1.52797514 4.24822374 -0.96655518 6.19989709 -4 9 C-4.99 8.67 -5.98 8.34 -7 8 C-5.88200014 6.66079162 -4.75538103 5.32877444 -3.625 4 C-2.68527344 2.88625 -2.68527344 2.88625 -1.7265625 1.75 C-1.15679687 1.1725 -0.58703125 0.595 0 0 Z " fill="#5F5E2C" transform="translate(343,171)"/>
<path d="M0 0 C0 4.05164344 -1.61357669 5.79537442 -4 9 C-4.99 9.66 -5.98 10.32 -7 11 C-7.66 10.34 -8.32 9.68 -9 9 C-6.03 6.03 -3.06 3.06 0 0 Z " fill="#535027" transform="translate(354,160)"/>
<path d="M0 0 C0.66 0.99 1.32 1.98 2 3 C1.2575 3.5775 0.515 4.155 -0.25 4.75 C-2.66087643 6.72253526 -4.84042701 8.76044282 -7 11 C-7.66 10.34 -8.32 9.68 -9 9 C-7.6078125 7.88625 -7.6078125 7.88625 -6.1875 6.75 C-3.72873042 4.70974439 -1.78352451 2.67528677 0 0 Z " fill="#6B6F3C" transform="translate(346,92)"/>
<path d="M0 0 C0.66 0 1.32 0 2 0 C2.36625971 4.51720311 2.36625971 4.51720311 0.625 6.8125 C-1 8 -1 8 -3 8 C-3.33 8.66 -3.66 9.32 -4 10 C-3.34 10.33 -2.68 10.66 -2 11 C-2.99 11 -3.98 11 -5 11 C-4.46968862 6.4923533 -2.74778884 3.58045212 0 0 Z " fill="#51543B" transform="translate(429,404)"/>
<path d="M0 0 C0 3.3 0 6.6 0 10 C-0.99 10 -1.98 10 -3 10 C-3 7.03 -3 4.06 -3 1 C-1 0 -1 0 0 0 Z " fill="#4C4F2C" transform="translate(440,96)"/>
<path d="M0 0 C0.66 0.99 1.32 1.98 2 3 C-0.97 3.66 -3.94 4.32 -7 5 C-7.66 4.01 -8.32 3.02 -9 2 C-6.03 1.34 -3.06 0.68 0 0 Z " fill="#585B29" transform="translate(214,282)"/>
<path d="M0 0 C-0.33 0.99 -0.66 1.98 -1 3 C-2.7421875 3.765625 -2.7421875 3.765625 -4.875 4.25 C-5.92300781 4.50523437 -5.92300781 4.50523437 -6.9921875 4.765625 C-9 5 -9 5 -12 4 C-10.75539217 3.32332002 -9.50403104 2.65905281 -8.25 2 C-7.55390625 1.62875 -6.8578125 1.2575 -6.140625 0.875 C-4 0 -4 0 0 0 Z " fill="#2C2B19" transform="translate(421,442)"/>
<path d="M0 0 C0.99 0 1.98 0 3 0 C3 2.31 3 4.62 3 7 C2.34 7 1.68 7 1 7 C0.34 8.32 -0.32 9.64 -1 11 C-0.67 7.37 -0.34 3.74 0 0 Z " fill="#5A5F19" transform="translate(216,145)"/>
<path d="M0 0 C0.66 0 1.32 0 2 0 C2 3.63 2 7.26 2 11 C1.01 11.495 1.01 11.495 0 12 C-1.16063604 7.74433453 -0.76173392 4.3164922 0 0 Z " fill="#646245" transform="translate(25,83)"/>
<path d="M0 0 C3.3 0.33 6.6 0.66 10 1 C10 1.99 10 2.98 10 4 C6.13304322 4 3.4911548 2.58090029 0 1 C0 0.67 0 0.34 0 0 Z " fill="#323412" transform="translate(384,42)"/>
<path d="M0 0 C0.99 0 1.98 0 3 0 C4.90318884 2.85478326 5.4619099 4.41941308 6.125 7.6875 C6.29257812 8.49574219 6.46015625 9.30398437 6.6328125 10.13671875 C6.75398438 10.75160156 6.87515625 11.36648437 7 12 C0 3.55172414 0 3.55172414 0 0 Z " fill="#272813" transform="translate(442,59)"/>
<path d="M0 0 C2.475 0.495 2.475 0.495 5 1 C5 1.66 5 2.32 5 3 C5.99 3.33 6.98 3.66 8 4 C7.67 4.99 7.34 5.98 7 7 C3.42895561 5.12050295 1.45255699 3.82946843 0 0 Z " fill="#2F2F18" transform="translate(57,415)"/>
<path d="M0 0 C3.64775386 3.88309282 4.58525633 6.71201818 5 12 C2.69857565 10.21825212 1.19965609 8.83695835 0.51171875 5.953125 C0.27676898 3.9753389 0.13248542 1.98728128 0 0 Z " fill="#32361A" transform="translate(49,399)"/>
<path d="M0 0 C0.66 0.33 1.32 0.66 2 1 C1.68289063 1.55171875 1.36578125 2.1034375 1.0390625 2.671875 C-0.12709975 5.28477989 -0.40045711 7.40579002 -0.625 10.25 C-0.69976562 11.14203125 -0.77453125 12.0340625 -0.8515625 12.953125 C-0.90054687 13.62859375 -0.94953125 14.3040625 -1 15 C-1.33 15 -1.66 15 -2 15 C-2.05386629 12.87527424 -2.09273071 10.75016348 -2.125 8.625 C-2.14820313 7.44164062 -2.17140625 6.25828125 -2.1953125 5.0390625 C-2 2 -2 2 0 0 Z " fill="#4C4F1C" transform="translate(261,288)"/>
<path d="M0 0 C0.99 0 1.98 0 3 0 C2.7834375 1.051875 2.7834375 1.051875 2.5625 2.125 C1.98521625 5.07556141 1.48304859 8.03270151 1 11 C0.34 10.67 -0.32 10.34 -1 10 C-0.67 6.7 -0.34 3.4 0 0 Z " fill="#5E6236" transform="translate(202,216)"/>
<path d="M0 0 C0.66 0 1.32 0 2 0 C1.52797514 4.24822374 -0.96655518 6.19989709 -4 9 C-4.33 8.34 -4.66 7.68 -5 7 C-4.21654285 5.82780457 -3.42297164 4.66236332 -2.625 3.5 C-2.18414062 2.8503125 -1.74328125 2.200625 -1.2890625 1.53125 C-0.65097656 0.77328125 -0.65097656 0.77328125 0 0 Z " fill="#848449" transform="translate(270,169)"/>
<path d="M0 0 C1.32 0.33 2.64 0.66 4 1 C3 4 3 4 0 6 C-0.99 6 -1.98 6 -3 6 C-2 4 -1 2 0 0 Z " fill="#8B9136" transform="translate(392,47)"/>
<path d="M0 0 C3.3 0 6.6 0 10 0 C10 0.33 10 0.66 10 1 C2.575 2.485 2.575 2.485 -5 4 C-4.67 3.34 -4.34 2.68 -4 2 C-2.68 2 -1.36 2 0 2 C0 1.34 0 0.68 0 0 Z " fill="#403906" transform="translate(92,23)"/>
<path d="M0 0 C0.33 0 0.66 0 1 0 C1 1.65 1 3.3 1 5 C0.01 5 -0.98 5 -2 5 C-1.67 6.32 -1.34 7.64 -1 9 C-2.32 9 -3.64 9 -5 9 C-3.75471468 5.55151758 -2.38532951 2.80016942 0 0 Z " fill="#5A5A3F" transform="translate(43,49)"/>
<path d="M0 0 C1.12588014 0.95729916 2.2506715 1.91587895 3.375 2.875 C4.00148438 3.40867188 4.62796875 3.94234375 5.2734375 4.4921875 C6.55836651 5.61432007 7.79371975 6.79371975 9 8 C8.67 8.99 8.34 9.98 8 11 C6.79557292 9.50260417 5.59114583 8.00520833 4.38671875 6.5078125 C2.87729455 4.74707893 2.87729455 4.74707893 0 3 C0 2.01 0 1.02 0 0 Z " fill="#464634" transform="translate(428,40)"/>
<path d="M0 0 C1.66666667 1.66666667 3.33333333 3.33333333 5 5 C5.8971875 5.8353125 5.8971875 5.8353125 6.8125 6.6875 C8 8 8 8 8 10 C3.79236776 8.4972742 2.1972242 5.76667005 0 2 C0 1.34 0 0.68 0 0 Z " fill="#545429" transform="translate(53,407)"/>
<path d="M0 0 C0.33 0.66 0.66 1.32 1 2 C1.99 2 2.98 2 4 2 C4.33 3.98 4.66 5.96 5 8 C2 7 2 7 0.3125 3.9375 C-0.120625 2.968125 -0.55375 1.99875 -1 1 C-0.67 0.67 -0.34 0.34 0 0 Z " fill="#4C422B" transform="translate(32,410)"/>
<path d="M0 0 C0.99 0.33 1.98 0.66 3 1 C2.67 2.65 2.34 4.3 2 6 C0.68 6 -0.64 6 -2 6 C-1.34 4.02 -0.68 2.04 0 0 Z " fill="#46472A" transform="translate(432,397)"/>
<path d="M0 0 C0.75 1.75 0.75 1.75 1 4 C-0.9375 6.25 -0.9375 6.25 -3 8 C-3.75 6.25 -3.75 6.25 -4 4 C-2.0625 1.75 -2.0625 1.75 0 0 Z " fill="#5B5F2A" transform="translate(432,82)"/>
<path d="M0 0 C1.43739513 -0.02712066 2.87493863 -0.04645067 4.3125 -0.0625 C5.51326172 -0.07990234 5.51326172 -0.07990234 6.73828125 -0.09765625 C9 0 9 0 12 1 C12 1.66 12 2.32 12 3 C7.97007218 2.44687265 3.97977076 1.8441938 0 1 C0 0.67 0 0.34 0 0 Z " fill="#4D5332" transform="translate(388,24)"/>
<path d="M0 0 C3.63 0.33 7.26 0.66 11 1 C11 1.33 11 1.66 11 2 C7.7 2.33 4.4 2.66 1 3 C0.67 2.01 0.34 1.02 0 0 Z " fill="#4B512D" transform="translate(281,435)"/>
<path d="M0 0 C0.99 0 1.98 0 3 0 C3.66 1.98 4.32 3.96 5 6 C4.01 6 3.02 6 2 6 C0.3125 3.5 0.3125 3.5 -1 1 C-0.67 0.67 -0.34 0.34 0 0 Z " fill="#44421F" transform="translate(41,424)"/>
<path d="M0 0 C0.66 0 1.32 0 2 0 C2 2.31 2 4.62 2 7 C1.01 7 0.02 7 -1 7 C-0.67 4.69 -0.34 2.38 0 0 Z " fill="#51503A" transform="translate(28,74)"/>
<path d="M0 0 C0.99 0.33 1.98 0.66 3 1 C1.25 7.75 1.25 7.75 -1 10 C-1 8.35 -1 6.7 -1 5 C-0.34 5 0.32 5 1 5 C1 4.34 1 3.68 1 3 C0.34 2.67 -0.32 2.34 -1 2 C-0.67 1.34 -0.34 0.68 0 0 Z " fill="#3A3F1A" transform="translate(37,56)"/>
<path d="M0 0 C3.7952131 1.49097658 5.61042731 3.75700849 8 7 C5.525 6.01 5.525 6.01 3 5 C3 4.34 3 3.68 3 3 C2.01 2.67 1.02 2.34 0 2 C0 1.34 0 0.68 0 0 Z " fill="#403426" transform="translate(46,431)"/>
<path d="M0 0 C-0.99 0.33 -1.98 0.66 -3 1 C-3 1.66 -3 2.32 -3 3 C-4.98 3 -6.96 3 -9 3 C-9 2.34 -9 1.68 -9 1 C-5.8035914 -0.06546953 -3.34252724 -0.07427838 0 0 Z " fill="#6F662F" transform="translate(199,286)"/>
<path d="M0 0 C0.33 0 0.66 0 1 0 C1 3.96 1 7.92 1 12 C0.67 12 0.34 12 0 12 C0 10.02 0 8.04 0 6 C-0.66 6 -1.32 6 -2 6 C-2 5.01 -2 4.02 -2 3 C-1.34 3 -0.68 3 0 3 C0 2.01 0 1.02 0 0 Z " fill="#8E9548" transform="translate(194,263)"/>
<path d="M0 0 C2.88437779 1.29299694 4.87219421 2.65941363 7 5 C3.89448334 5 2.64738916 4.4606285 0 3 C0 2.01 0 1.02 0 0 Z " fill="#7F842F" transform="translate(302,220)"/>
<path d="M0 0 C0.763125 0.474375 1.52625 0.94875 2.3125 1.4375 C4.96410548 3.10106097 4.96410548 3.10106097 8 4 C8 4.66 8 5.32 8 6 C5.21788056 5.62403791 3.4120716 5.32681541 1.1875 3.5625 C0 2 0 2 0 0 Z " fill="#6A7033" transform="translate(253,172)"/>
<path d="M0 0 C3.77545388 1.09068668 6.47043472 1.9083091 9 5 C8.01 5.495 8.01 5.495 7 6 C3.63050557 4.31525278 2.12055614 3.1808342 0 0 Z " fill="#6A7131" transform="translate(237,157)"/>
<path d="M0 0 C2 3 2 3 1.8125 5.125 C1.544375 5.74375 1.27625 6.3625 1 7 C0.01 7.33 -0.98 7.66 -2 8 C-1.125 2.25 -1.125 2.25 0 0 Z " fill="#8C9253" transform="translate(216,154)"/>
<path d="M0 0 C0 0.99 0 1.98 0 3 C-0.99 3 -1.98 3 -3 3 C-3 3.99 -3 4.98 -3 6 C-4.32 5.67 -5.64 5.34 -7 5 C-4.63707344 2.47411298 -3.33537489 1.11179163 0 0 Z " fill="#9E9F3D" transform="translate(286,154)"/>
<path d="M0 0 C0 3 0 3 -1.3125 4.38671875 C-2.875 5.59114583 -4.4375 6.79557292 -6 8 C-5.65120368 4.74456771 -4.97866739 3.98126893 -2.4375 1.75 C-1.633125 1.1725 -0.82875 0.595 0 0 Z " fill="#7C7947" transform="translate(399,117)"/>
<path d="M0 0 C0.99 0 1.98 0 3 0 C1.63016497 3.16115776 1.0109362 3.9927092 -2 6 C-1.125 1.125 -1.125 1.125 0 0 Z " fill="#7E7D44" transform="translate(361,153)"/>
<path d="M0 0 C0.66 0.33 1.32 0.66 2 1 C0.68 3.64 -0.64 6.28 -2 9 C-3 5 -3 5 -1.5625 2.25 C-1.046875 1.5075 -0.53125 0.765 0 0 Z " fill="#42432B" transform="translate(51,72)"/>
<path d="M0 0 C0.33 0.66 0.66 1.32 1 2 C0.01 2.99 -0.98 3.98 -2 5 C-3.32 4.34 -4.64 3.68 -6 3 C-4.02 2.01 -2.04 1.02 0 0 Z " fill="#4E4F39" transform="translate(73,28)"/>
</svg>
